0
SECTION
2
HEADER
9
$INSUNITS
70
4
9
$ACADVER
1
AC1014
9
$HANDSEED
5
FFFF
0
ENDSEC
0
SECTION
2
TABLES
0
TABLE
2
VPORT
5
8
100
AcDbSymbolTable
0
ENDTAB
0
TABLE
2
LTYPE
5
5
100
AcDbSymbolTable
0
LTYPE
5
14
100
AcDbSymbolTableRecord
100
AcDbLinetypeTableRecord
2
BYBLOCK
70
0
0
LTYPE
5
15
100
AcDbSymbolTableRecord
100
AcDbLinetypeTableRecord
2
BYLAYER
70
0
0
ENDTAB
0
TABLE
2
LAYER
5
2
100
AcDbSymbolTable
70
2
0
LAYER
5
50
100
AcDbSymbolTableRecord
100
AcDbLayerTableRecord
2
0
70
0
6
CONTINUOUS
0
ENDTAB
0
TABLE
2
STYLE
5
3
100
AcDbSymbolTable
70
1
0
STYLE
5
11
100
AcDbSymbolTableRecord
100
AcDbTextStyleTableRecord
2
STANDARD
70
0
0
ENDTAB
0
TABLE
2
VIEW
5
6
100
AcDbSymbolTable
70
0
0
ENDTAB
0
TABLE
2
UCS
5
7
100
AcDbSymbolTable
70
0
0
ENDTAB
0
TABLE
2
APPID
5
9
100
AcDbSymbolTable
70
2
0
APPID
5
12
100
AcDbSymbolTableRecord
100
AcDbRegAppTableRecord
2
ACAD
70
0
0
ENDTAB
0
TABLE
2
DIMSTYLE
5
A
100
AcDbSymbolTable
70
1
0
ENDTAB
0
TABLE
2
BLOCK_RECORD
5
1
100
AcDbSymbolTable
70
1
0
BLOCK_RECORD
5
1F
100
AcDbSymbolTableRecord
100
AcDbBlockTableRecord
2
*MODEL_SPACE
0
BLOCK_RECORD
5
1B
100
AcDbSymbolTableRecord
100
AcDbBlockTableRecord
2
*PAPER_SPACE
0
ENDTAB
0
ENDSEC
0
SECTION
2
BLOCKS
0
BLOCK
5
20
100
AcDbEntity
100
AcDbBlockBegin
2
*MODEL_SPACE
0
ENDBLK
5
21
100
AcDbEntity
100
AcDbBlockEnd
0
BLOCK
5
1C
100
AcDbEntity
100
AcDbBlockBegin
2
*PAPER_SPACE
0
ENDBLK
5
1D
100
AcDbEntity
100
AcDbBlockEnd
0
ENDSEC
0
SECTION
2
ENTITIES
0
LWPOLYLINE
5
100
100
AcDbEntity
8
0
100
AcDbPolyline
90
8
70
1
43
0.0
10
-19.600000000000005
20
21.849999999999994
42
0.41421356237309509
10
-22.800000000000004
20
25.049999999999994
10
-36.800000000000004
20
25.049999999999994
42
0.41421356237309509
10
-40
20
21.849999999999994
10
-40
20
20.099999999999998
42
0.41421356237309509
10
-36.800000000000004
20
16.899999999999999
10
-22.800000000000004
20
16.899999999999999
42
0.41421356237309509
10
-19.600000000000005
20
20.099999999999998
0
LWPOLYLINE
5
101
100
AcDbEntity
8
0
100
AcDbPolyline
90
8
70
1
43
0.0
10
39.999999999999993
20
21.849999999999994
42
0.41421356237309509
10
36.799999999999997
20
25.049999999999994
10
22.800000000000004
20
25.049999999999994
42
0.41421356237309509
10
19.600000000000001
20
21.849999999999994
10
19.600000000000001
20
20.099999999999998
42
0.41421356237309509
10
22.800000000000004
20
16.899999999999999
10
36.800000000000004
20
16.899999999999999
42
0.41421356237309509
10
40
20
20.099999999999998
0
LWPOLYLINE
5
102
100
AcDbEntity
8
0
100
AcDbPolyline
90
10
70
1
43
0.0
10
-59.700000000000003
20
42.850000000000001
10
-59.700000000000003
20
-37.101471862576147
10
-52.05147186257615
20
-44.750000000000007
10
52.051471862576165
20
-44.750000000000007
10
59.700000000000003
20
-37.101471862576147
10
59.700000000000003
20
42.850000000000001
10
52.800000000000004
20
42.850000000000001
10
52.800000000000004
20
50.350000000000001
10
-52.800000000000004
20
50.350000000000001
10
-52.800000000000004
20
42.850000000000001
0
LWPOLYLINE
5
103
100
AcDbEntity
8
0
100
AcDbPolyline
90
8
70
1
43
0.0
10
42
20
9.3207854658858977
10
-42
20
9.3207854658858977
42
0.4142135623730952
10
-50
20
1.3207854658858915
10
-50
20
-27.679214534114106
42
0.41421356237309509
10
-42
20
-35.679214534114102
10
42
20
-35.679214534114102
42
0.41421356237309509
10
50
20
-27.679214534114106
10
50.000000000000007
20
1.320785465885896
42
0.41421356237309509
0
LINE
5
104
100
AcDbEntity
8
0
100
AcDbLine
10
0
20
50.350000000000001
30
0
11
5.0246296250732897e-15
21
-31.708429068228217
31
0
0
LWPOLYLINE
5
105
100
AcDbEntity
8
0
100
AcDbPolyline
90
8
70
1
43
0.0
10
51.000000014901161
20
-27.679214534114106
10
51.000000014901168
20
1.3207854658858942
42
0.41421356237309515
10
42
20
10.320785480787062
10
-42
20
10.320785480787059
42
0.4142135623730952
10
-51.000000014901161
20
1.3207854658858902
10
-51.000000014901161
20
-27.679214534114106
42
0.41421356237309509
10
-42
20
-36.679214549015263
10
42
20
-36.679214549015263
42
0.41421356237309509
0
LINE
5
106
100
AcDbEntity
8
0
100
AcDbLine
10
50
20
-13.179214534114108
30
0
11
-50
21
-13.179214534114108
31
0
0
LINE
5
107
100
AcDbEntity
8
0
100
AcDbLine
10
-1.5407439555097887e-31
20
-35.679214534114102
30
0
11
2.5123148125366449e-15
21
9.3207854658858924
31
0
0
ENDSEC
0
SECTION
2
OBJECTS
0
DICTIONARY
5
C
100
AcDbDictionary
3
ACAD_GROUP
350
D
3
ACAD_MLINESTYLE
350
17
0
DICTIONARY
5
D
100
AcDbDictionary
0
DICTIONARY
5
1A
330
C
100
AcDbDictionary
0
DICTIONARY
5
17
100
AcDbDictionary
0
ENDSEC
0
EOF
