<?xml version="1.0" encoding="UTF-8"?>
<svg id="Layer_2" data-name="Layer 2" xmlns="http://www.w3.org/2000/svg" xmlns:xlink="http://www.w3.org/1999/xlink" viewBox="0 0 283.53 127.56">
  <defs>
    <style>
      .cls-1, .cls-2, .cls-3, .cls-4, .cls-5 {
        fill: none;
      }

      .cls-6 {
        font-family: EurostileExtended-Black, 'Eurostile Extended';
        font-size: 17.16px;
        font-weight: 800;
      }

      .cls-6, .cls-7, .cls-8, .cls-9, .cls-10 {
        isolation: isolate;
      }

      .cls-6, .cls-10 {
        fill: #0b4898;
      }

      .cls-2 {
        stroke-linejoin: round;
      }

      .cls-2, .cls-11, .cls-3, .cls-4, .cls-12, .cls-5 {
        stroke: #000;
      }

      .cls-2, .cls-3, .cls-4 {
        stroke-linecap: round;
      }

      .cls-13 {
        fill: url(#linear-gradient);
      }

      .cls-14 {
        clip-path: url(#clippath);
      }

      .cls-15 {
        letter-spacing: -.15em;
      }

      .cls-16 {
        letter-spacing: -.25em;
      }

      .cls-11 {
        stroke-width: .3px;
      }

      .cls-11, .cls-17, .cls-7, .cls-18, .cls-12 {
        fill: #fff;
      }

      .cls-11, .cls-3, .cls-4, .cls-18, .cls-12, .cls-5 {
        stroke-miterlimit: 10;
      }

      .cls-19 {
        fill: #f675b9;
      }

      .cls-20 {
        fill: red;
      }

      .cls-21 {
        fill: #ff5cbd;
      }

      .cls-22 {
        letter-spacing: -.14em;
      }

      .cls-7 {
        font-family: SouvenirStd-DemiItalic, 'ITC Souvenir Std';
        font-size: 6.7px;
        font-style: italic;
      }

      .cls-7, .cls-9 {
        font-weight: 300;
      }

      .cls-8 {
        font-family: ToppanBunkyuMidashiGothicStdN-ExtraBold-83pv-RKSJ-H, 'Toppan Bunkyu Midashi Gothic';
        font-size: 4.5px;
        font-weight: 700;
      }

      .cls-3 {
        stroke-width: .4px;
      }

      .cls-9 {
        font-family: Avenir-Light, Avenir;
        font-size: 8.41px;
      }

      .cls-10 {
        font-family: Avenir-Medium, Avenir;
        font-size: 4.38px;
        font-weight: 500;
      }

      .cls-23 {
        letter-spacing: -.32em;
      }

      .cls-24 {
        filter: url(#drop-shadow-3);
      }

      .cls-25 {
        filter: url(#drop-shadow-1);
      }

      .cls-4 {
        stroke-width: .5px;
      }

      .cls-18 {
        stroke: #fff;
      }

      .cls-12 {
        stroke-width: .4px;
      }

      .cls-26 {
        fill: url(#linear-gradient-2);
      }

      .cls-5 {
        stroke-width: .6px;
      }

      .cls-27 {
        opacity: .8;
      }

      .cls-28 {
        letter-spacing: -.09em;
      }

      .cls-29 {
        fill: #46a1cd;
      }

      .cls-29, .cls-30, .cls-31 {
        fill-rule: evenodd;
      }

      .cls-30 {
        fill: #e5679d;
      }

      .cls-32 {
        letter-spacing: -.06em;
      }
    </style>
    <clipPath id="clippath">
      <path class="cls-1" d="m260.85,0h-96.4v127.56h96.4c12.52,0,22.68-10.15,22.68-22.68V22.68C283.53,10.15,273.37,0,260.85,0Z"/>
    </clipPath>
    <filter id="drop-shadow-1" filterUnits="userSpaceOnUse">
      <feOffset dx="2.83" dy="0"/>
      <feGaussianBlur result="blur" stdDeviation="1.42"/>
      <feFlood flood-color="#000" flood-opacity=".63"/>
      <feComposite in2="blur" operator="in"/>
      <feComposite in="SourceGraphic"/>
    </filter>
    <linearGradient id="linear-gradient" x1="450.68" y1="1315.93" x2="584.64" y2="1315.93" gradientTransform="translate(-706.05 1234.78) rotate(12.5) scale(1 -1)" gradientUnits="userSpaceOnUse">
      <stop offset="0" stop-color="#0f9e4b"/>
      <stop offset=".24" stop-color="#f4e203"/>
      <stop offset=".47" stop-color="#e48237"/>
      <stop offset=".76" stop-color="#d75c93"/>
      <stop offset="1" stop-color="#005f85"/>
    </linearGradient>
    <linearGradient id="linear-gradient-2" x1="99.43" y1="793.04" x2="99.43" y2="801.65" gradientTransform="translate(0 829.58) scale(1 -1)" gradientUnits="userSpaceOnUse">
      <stop offset=".24" stop-color="#f7e947"/>
      <stop offset=".71" stop-color="#c53327"/>
    </linearGradient>
    <filter id="drop-shadow-3" filterUnits="userSpaceOnUse">
      <feOffset dx="2.83" dy="0"/>
      <feGaussianBlur result="blur-2" stdDeviation="1.42"/>
      <feFlood flood-color="#000" flood-opacity=".63"/>
      <feComposite in2="blur-2" operator="in"/>
      <feComposite in="SourceGraphic"/>
    </filter>
  </defs>
  <g id="svg848">
    <rect class="cls-17" width="283.46" height="127.56" rx="22.68" ry="22.68"/>
    <g class="cls-27">
      <g class="cls-14">
        <image width="1920" height="1080" transform="translate(100.14 4.83) scale(.1 .12)" xlink:href="../../Desktop/pcb test export.png"/>
      </g>
    </g>
    <image class="cls-25" width="922" height="922" transform="translate(173.63 7.58) scale(.12)" xlink:href="../Untitled1 copy.png"/>
    <path class="cls-20" d="m260.79,5c9.75,0,17.68,7.93,17.68,17.68v82.2c0,9.75-7.93,17.68-17.68,17.68H22.68c-9.75,0-17.68-7.93-17.68-17.68V22.68c0-9.75,7.93-17.68,17.68-17.68h238.11M260.79,0H22.68C10.15,0,0,10.15,0,22.68v82.2C0,117.41,10.15,127.56,22.68,127.56h238.11c12.52,0,22.68-10.15,22.68-22.68V22.68C283.46,10.15,273.31,0,260.79,0h0Z"/>
    <g>
      <text class="cls-6" transform="translate(13.49 23.25) scale(.91 1)"><tspan x="0" y="0">OIOIO</tspan></text>
      <text class="cls-10" transform="translate(75.03 23.25) scale(1.04 1)"><tspan x="0" y="0">®</tspan></text>
    </g>
    <g>
      <g>
        <path d="m146.82,109.33l-1.4-1.9h0l-1.4,1.9h-.6l1.6-2.3-1.6-2.2h.6l1.3,1.8h0l1.3-1.8h.6l-1.6,2.2,1.7,2.3h-.5Z"/>
        <path d="m147.62,104.83h.5v2.3c.4-.3,1.7-1.5,2.5-2.3h.6l-2.1,1.9,2.2,2.6h-.6l-2-2.3-.7.5v1.8h-.5v-4.5h.1Z"/>
        <path d="m153.02,107.43v.4h-1.8v-.4h1.8Z"/>
        <path d="m154.22,109.33v-3.7c-.2.2-.7.4-1,.4v-.4c.3-.1.8-.3,1.1-.6h.4v4.3h-.5Z"/>
        <path d="m158.42,107.13c0,1-.3,2.2-1.5,2.2s-1.5-1.1-1.5-2.2.3-2.2,1.5-2.2,1.5,1.2,1.5,2.2Zm-2.6,0c0,.8.2,1.8,1,1.8.9,0,1-.9,1-1.8,0-.8-.2-1.8-1-1.8s-1,.9-1,1.8Z"/>
        <path d="m159.62,109.33v-3.7c-.2.2-.7.4-1,.4v-.4c.3-.1.8-.3,1.1-.6h.4v4.3h-.5Z"/>
      </g>
      <g>
        <g>
          <path d="m88.42,104.43s-1.9,1-1.7,2.1c.4,1.9-.5,3.6,1.6,2.5,1.8-1,3.4-3.5,3.9-4.3.06-.16.14-.29.2-.5.2-.7.9-2.8,1-5.2.1-2.2,0-3.5,0-4,0-.2-.1-.4-.3-.5-.3-.2-.8-.4-1.4.3-.2.3-.3.6-.3,1l-.1,3.8c0,.2,0,.4-.1.6-.1.7-.5,2.3-1.2,3-1,.8-1.6,1.2-1.6,1.2Z"/>
          <path d="m94.22,107.13l1.1-11.7s.05-.29.08-.39c.08-.21.22-.91,1.02-.91.3,0,.6.2.7.4.1.3.2.8.2,1.5-.2,1.7-.6,8.3-.6,8.3,0,0-.1,1.2,1.6.7,2-.6,3.8-2.4,4-3.9s.7-1.9,1.4-1.9,1.1.9,1,1.9c-.2,1.1-.6,4.5-5.3,6.7-1.6.7-2.7,1-3.5,1.1-.9,0-1.8-.8-1.7-1.8Z"/>
          <path d="m117.42,105.73l1-10.5s0-1.4,1.7-1.2c0,0,.8.1.6,3.3v1.4c0,.1.1.1.1.1.8-.1,5.7-.5,8.5-1.7,0,0,2.5-1.7,2.1.8-.3,2.6-.6,2-3.1,2.5-2.2.4-7.1,1.6-8.1,1.8-.1,0-.2.1-.2.2-.1.2-.2.7-.2,1.2-.1.7-.4,1.3,1.9,1.4,2.6.1,8.1.1,8.1.1,0,0,1.5-.1,1.3,1.5-.2,1.8.3,2.3-2.6,2.2-2.9-.1-9.3,0-9.3,0,0,0-1.9-.1-1.8-1.9v-1.2Z"/>
          <path d="m133.02,101.63s0-1.9,1.9-1.9c2.3.1,6.8,0,6.8,0,0,0,1.1,0,1.1,1,0,1.1.2,2.4-1.7,2.5s-7,0-7,0c0,0-1.2,0-1.1-1.6Z"/>
          <path d="m133.72,93.43c-1.2,0-2.2.9-2.2,2s1,2,2.2,2,2.2-.9,2.2-2-.9-2-2.2-2Zm0,3c-.6,0-1.1-.5-1.1-1s.5-1,1.1-1,1.1.5,1.1,1-.4,1-1.1,1Z"/>
        </g>
        <path d="m106.12,101.63s0-1.9,1.9-1.9c2.3.1,6.8,0,6.8,0,0,0,1.1,0,1.1,1,0,1.1.2,2.4-1.7,2.5-2,.1-7,0-7,0,0,0-1.1,0-1.1-1.6Z"/>
      </g>
    </g>
    <g>
      <g>
        <path d="m66.31,118.21h0c0-.6.34-1.19,1.19-1.79.6-.43.77-.6.77-1.02,0-.34-.17-.68-.68-.68-.43,0-.68.26-.77.68h-.6c.09-.68.51-1.19,1.36-1.19.94,0,1.28.6,1.28,1.11,0,.6-.26.85-1.02,1.36-.51.43-.77.68-.94.94h2.04l-.09.51h-2.55v.09Z"/>
        <path d="m72.52,116.26c0,.94-.26,2.04-1.45,2.04-1.11,0-1.45-1.02-1.45-1.96,0-1.02.34-1.96,1.45-1.96,1.11-.09,1.45.94,1.45,1.87Zm-2.21.09c0,.77.09,1.53.77,1.53s.77-.77.77-1.53-.09-1.53-.77-1.53c-.6,0-.77.68-.77,1.53Z"/>
        <path d="m73.28,118.21h0c0-.6.34-1.19,1.19-1.79.6-.43.77-.6.77-1.02,0-.34-.17-.68-.68-.68-.43,0-.68.26-.77.68h-.6c.09-.68.51-1.19,1.36-1.19.94,0,1.28.6,1.28,1.11,0,.6-.26.85-1.02,1.36-.51.43-.77.68-.94.94h2.04l-.09.51h-2.55v.09Z"/>
        <path d="m76.77,115.32c.09-.51.43-1.02,1.28-1.02s1.19.51,1.19,1.02-.26.68-.51.77h0c.34.09.68.43.68.94,0,.6-.34,1.19-1.36,1.19-.94,0-1.28-.6-1.36-1.11h.6c.09.34.34.6.85.6s.77-.34.77-.77c0-.51-.26-.68-.85-.68h-.26v-.34h.26c.51,0,.68-.17.68-.6,0-.34-.26-.6-.68-.6s-.6.26-.68.51h-.6v.09Z"/>
        <path d="m85.95,116.17c0,1.11-.68,2.13-1.96,2.13s-1.96-.94-1.96-2.13.68-2.13,1.96-2.13c1.19.09,1.96.94,1.96,2.13Zm-3.32,0c0,.85.43,1.62,1.28,1.62.94,0,1.28-.77,1.28-1.62s-.43-1.53-1.28-1.53-1.28.68-1.28,1.53Z"/>
        <path d="m87.65,114.22v4.08h-.6v-4.08h.6Z"/>
        <path d="m92.58,116.17c0,1.11-.68,2.13-1.96,2.13s-1.96-.94-1.96-2.13.68-2.13,1.96-2.13c1.19.09,1.96.94,1.96,2.13Zm-3.23,0c0,.85.43,1.62,1.28,1.62.94,0,1.28-.77,1.28-1.62s-.43-1.53-1.28-1.53c-.94,0-1.28.68-1.28,1.53Z"/>
        <path d="m94.28,114.22v4.08h-.6v-4.08h.6Z"/>
        <path d="m99.21,116.17c0,1.11-.68,2.13-1.96,2.13s-1.96-.94-1.96-2.13.68-2.13,1.96-2.13c1.28.09,1.96.94,1.96,2.13Zm-3.23,0c0,.85.43,1.62,1.28,1.62.94,0,1.28-.77,1.28-1.62s-.43-1.53-1.28-1.53-1.28.68-1.28,1.53Z"/>
        <path d="m105.42,117.11c-.17.68-.68,1.19-1.7,1.19-1.28,0-1.87-.94-1.87-2.04s.6-2.13,1.96-2.13c1.02,0,1.53.6,1.7,1.28h-.6c-.17-.43-.43-.77-1.11-.77-.85,0-1.28.77-1.28,1.62,0,.77.34,1.62,1.28,1.62.6,0,.94-.34,1.02-.77h.6Z"/>
        <path d="m110.1,116.17c0,1.11-.68,2.13-1.96,2.13s-1.96-.94-1.96-2.13.68-2.13,1.96-2.13c1.19.09,1.96.94,1.96,2.13Zm-3.23,0c0,.85.43,1.62,1.28,1.62.94,0,1.28-.77,1.28-1.62s-.43-1.53-1.28-1.53c-.94,0-1.28.68-1.28,1.53Z"/>
        <path d="m114.69,116.6v-1.96h0c-.17.68-.85,2.38-1.28,3.66h-.51c-.34-1.02-1.02-2.89-1.19-3.66h0c0,.51.09,1.36.09,2.04v1.62h-.6v-4.08h.94c.43,1.19,1.02,2.81,1.11,3.32h0c.09-.43.77-2.13,1.19-3.32h.94v4.08h-.6v-1.7h-.09Z"/>
        <path d="m116.64,114.22h1.62c.85,0,1.36.43,1.36,1.19,0,.85-.6,1.19-1.45,1.19h-.94v1.62h-.6v-4Zm.6,1.87h.94c.51,0,.85-.26.85-.68,0-.51-.34-.68-.85-.68h-.94v1.36Z"/>
        <path d="m121.23,114.22v2.47c0,.94.51,1.19,1.02,1.19.6,0,1.02-.26,1.02-1.19v-2.47h.6v2.38c0,1.36-.77,1.7-1.62,1.7s-1.62-.43-1.62-1.7v-2.38h.6Z"/>
        <path d="m125.99,114.73h-1.36v-.51h3.32v.51h-1.36v3.57h-.6v-3.57h0Z"/>
        <path d="m131.44,116.34h-2.04v1.36h2.3l-.09.51h-2.81v-4h2.72v.51h-2.13v1.19h2.04v.43h0Z"/>
        <path d="m133.22,116.51v1.79h-.6v-4.08h1.7c.85,0,1.36.43,1.36,1.11,0,.51-.34.85-.68.94.34.09.6.34.6,1.02v.17c0,.26,0,.6.09.77h-.68c-.09-.17-.09-.51-.09-.85v-.09c0-.6-.17-.77-.85-.77h-.85Zm0-.51h.85c.6,0,.85-.26.85-.68s-.26-.68-.85-.68h-.94v1.36h.09Z"/>
        <path d="m141.72,117.11c-.17.68-.68,1.19-1.7,1.19-1.28,0-1.87-.94-1.87-2.04s.6-2.13,1.96-2.13c1.02,0,1.53.6,1.7,1.28h-.6c-.17-.43-.43-.77-1.11-.77-.85,0-1.28.77-1.28,1.62,0,.77.34,1.62,1.28,1.62.6,0,.94-.34,1.02-.77h.6Z"/>
        <path d="m146.49,116.17c0,1.11-.68,2.13-1.96,2.13s-1.96-.94-1.96-2.13.68-2.13,1.96-2.13c1.19.09,1.96.94,1.96,2.13Zm-3.32,0c0,.85.43,1.62,1.28,1.62.94,0,1.28-.77,1.28-1.62s-.43-1.53-1.28-1.53-1.28.68-1.28,1.53Z"/>
        <path d="m147.34,118.21v-.94h.6v.94h-.6Z"/>
        <path d="m148.53,118.89c.34-.68.43-1.19.43-1.53h.6c-.09.51-.26,1.11-.6,1.53h-.43Z"/>
        <path d="m150.57,114.22h.6v3.57h2.13l-.09.51h-2.72v-4.08h.09Z"/>
        <path d="m154.99,114.73h-1.28v-.51h3.32v.51h-1.36v3.57h-.6v-3.57h-.09Z"/>
        <path d="m157.79,114.22h1.53c1.19,0,1.96.77,1.96,1.96s-.77,2.04-1.96,2.04h-1.53v-4Zm.6,3.57h.85c.94,0,1.36-.68,1.36-1.53,0-.77-.43-1.53-1.36-1.53h-.85v3.06Z"/>
        <path d="m162.13,118.21v-.94h.6v.94h-.6Z"/>
        <path class="cls-17" d="m171.91,117.11l-.43,1.19h-.6l1.45-4.08h.77l1.53,4.08h-.68l-.43-1.19h-1.62Zm1.45-.51c-.34-1.02-.6-1.62-.68-1.87h0c-.09.34-.34,1.02-.68,1.87h1.36Z"/>
        <path class="cls-17" d="m175.4,118.21v-4.25h.6v4.25h-.6Z"/>
        <path class="cls-17" d="m177.1,118.21v-4.25h.6v4.25h-.6Z"/>
        <path class="cls-17" d="m183.13,116.77c0,.85-.51,1.53-1.45,1.53-.85,0-1.45-.68-1.45-1.53s.51-1.53,1.45-1.53,1.45.6,1.45,1.53Zm-2.21,0c0,.68.34,1.11.85,1.11s.85-.43.85-1.11-.34-1.11-.85-1.11c-.6,0-.85.43-.85,1.11Z"/>
        <path class="cls-17" d="m184.66,117.87v1.53h-.6v-4.17h.6v.43c.17-.26.43-.51,1.02-.51.68,0,1.19.6,1.19,1.45,0,1.02-.6,1.62-1.36,1.62-.51.09-.77-.09-.85-.34Zm1.53-1.19c0-.6-.26-1.02-.77-1.02-.6,0-.85.34-.85,1.11,0,.68.17,1.11.77,1.11.6,0,.85-.43.85-1.19Z"/>
        <path class="cls-17" d="m188.06,116.85c0,.6.26,1.02.77,1.02.43,0,.6-.26.68-.43h.6c-.09.34-.43.94-1.28.94-.94,0-1.36-.77-1.36-1.53,0-.94.43-1.62,1.45-1.62s1.36.77,1.36,1.45v.26h-2.21v-.09Zm1.53-.34c0-.43-.26-.85-.77-.85s-.77.34-.77.85h1.53Z"/>
        <path class="cls-17" d="m191.13,116v-.77h.6v.43c.09-.26.34-.51.94-.51s1.02.34,1.02,1.11v1.87h-.6v-1.87c0-.43-.17-.68-.6-.68-.51,0-.77.34-.77.94v1.62h-.6v-2.13h0Z"/>
        <path class="cls-17" d="m196.82,117.36c.09.34.34.51.68.51.43,0,.6-.17.6-.43s-.17-.34-.68-.51c-.94-.26-1.11-.51-1.11-.85,0-.43.34-.85,1.11-.85.85,0,1.11.43,1.19.85h-.6c0-.17-.17-.43-.6-.43s-.51.17-.51.34.09.34.68.43c.94.26,1.11.51,1.11.94,0,.51-.43.94-1.19.94-.85,0-1.19-.43-1.28-.94h.6Z"/>
        <path class="cls-17" d="m202.26,116.77c0,.85-.51,1.53-1.45,1.53-.85,0-1.45-.68-1.45-1.53s.51-1.53,1.45-1.53c.85,0,1.45.6,1.45,1.53Zm-2.3,0c0,.68.34,1.11.85,1.11s.85-.43.85-1.11-.26-1.11-.85-1.11c-.51,0-.85.43-.85,1.11Z"/>
        <path class="cls-17" d="m205.66,117.36v.85h-.6v-.43c-.17.34-.43.51-.94.51s-1.02-.26-1.02-1.11v-1.96h.6v1.87c0,.34.09.77.6.77s.77-.26.77-1.02v-1.53h.6v2.04Z"/>
        <path class="cls-17" d="m206.77,116.09v-.85h.6v.6c.17-.43.51-.68,1.02-.68v.6c-.6,0-1.02.34-1.02,1.11v1.45h-.6v-2.21Z"/>
        <path class="cls-17" d="m211.53,117.36c-.09.51-.51,1.02-1.28,1.02-.85,0-1.36-.6-1.36-1.53,0-.85.51-1.62,1.45-1.62s1.19.6,1.28,1.02h-.6c-.09-.26-.26-.51-.68-.51-.51,0-.77.43-.77,1.11s.26,1.11.77,1.11c.34,0,.6-.17.68-.51h.51v-.09Z"/>
        <path class="cls-17" d="m212.81,116.85c0,.6.26,1.02.77,1.02.43,0,.6-.26.68-.43h.6c-.09.34-.43.94-1.28.94-.94,0-1.36-.77-1.36-1.53,0-.94.43-1.62,1.45-1.62s1.36.77,1.36,1.45v.26h-2.21v-.09Zm1.53-.34c0-.43-.26-.85-.77-.85s-.77.34-.77.85h1.53Z"/>
        <path class="cls-17" d="m215.7,118.21v-.94h.6v.94h-.6Z"/>
      </g>
      <text class="cls-9" transform="translate(56.83 119.32) scale(1.06 1)"><tspan x="0" y="0">©</tspan></text>
      <line class="cls-12" x1="58.15" y1="114.47" x2="62.57" y2="118.55"/>
    </g>
    <g>
      <g>
        <path class="cls-18" d="m51.66,108.58h-24.9v6.8h23.02c1,0,1.82-.79,1.82-1.76v-5.04h.06Z"/>
        <g>
          <path class="cls-19" d="m52.04,110.34h-24.9v-7.02h23.08c1,0,1.82.82,1.82,1.82v5.21h0Z"/>
          <path class="cls-21" d="m50.22,103.31h-23.08v7.02h24.9v-5.21c0-1-.82-1.82-1.82-1.82h0Z"/>
        </g>
        <path class="cls-4" d="m50.28,115.79H16.23c-.94,0-1.76-.82-1.76-1.76v-8.97c0-.94.82-1.76,1.76-1.76h34.06c.94,0,1.76.82,1.76,1.76v8.97c0,.94-.82,1.76-1.76,1.76Z"/>
        <polygon class="cls-31" points="27.27 103.31 27.27 115.79 16.23 115.79 14.79 115.1 14.47 114.16 14.47 104.94 14.91 103.88 16.23 103.31 27.27 103.31"/>
        <text class="cls-7" transform="translate(30.84 109.52) scale(.91 1)"><tspan x="0" y="0">PICO</tspan></text>
        <text class="cls-8" transform="translate(28.08 114.72)"><tspan class="cls-22" x="0" y="0">ピ</tspan><tspan class="cls-23" x="3.89" y="0">コ</tspan><tspan class="cls-16" x="6.96" y="0">・</tspan><tspan class="cls-28" x="10.33" y="0">パ</tspan><tspan class="cls-15" x="14.43" y="0">ワ</tspan><tspan class="cls-32" x="18.24" y="0">ー</tspan></text>
      </g>
      <g>
        <g>
          <path class="cls-17" d="m22.29,107.94v1.81c0,.07.05.12.11.12h2.59v-2.06h-2.59c-.06,0-.11.05-.11.12Z"/>
          <path class="cls-17" d="m24.43,106.21h-.41v.48c0,.11-.09.2-.2.2h-.54c-.11,0-.2-.09-.2-.2v-.48h-.85v.48c0,.11-.09.2-.2.2h-.54c-.11,0-.2-.09-.2-.2v-.48h-.8v.48c0,.11-.09.2-.2.2h-.54c-.11,0-.2-.09-.2-.2v-.48h-.9v.48c0,.11-.09.2-.2.2h-.54c-.11,0-.2-.09-.2-.2v-.48h-.41c-.31,0-.56.25-.56.56v5.55c0,.31.25.56.56.56h.38v-.48c0-.11.09-.2.2-.2h.54c.11,0,.2.09.2.2v.48h.9v-.48c0-.11.09-.2.2-.2h.54c.11,0,.2.09.2.2v.48h.8v-.48c0-.11.09-.2.2-.2h.54c.11,0,.2.09.2.2v.48h.85v-.48c0-.11.09-.2.2-.2h.54c.11,0,.2.09.2.2v.48h.43c.31,0,.56-.25.56-.56v-2.03h-2.59c-.29,0-.53-.24-.53-.54v-1.81c0-.3.24-.54.53-.54h2.59v-.62c0-.31-.25-.56-.56-.56Zm-3.47,3.72l-1.29,1.29c-.21.21-.55.21-.77,0l-1.29-1.29c-.21-.21-.21-.55,0-.77l1.29-1.29c.21-.21.55-.21.77,0l1.29,1.29c.21.21.21.55,0,.77Z"/>
        </g>
        <path class="cls-3" d="m23.26,109.26s.15.29.52.29.5-.29.5-.29"/>
        <g>
          <path class="cls-17" d="m24.28,108.82c-.18,0-.33-.15-.33-.33s.15-.33.33-.33.33.15.33.33-.15.33-.33.33Z"/>
          <path d="m24.28,108.31c.1,0,.19.08.19.19s-.08.19-.19.19-.19-.08-.19-.19.08-.19.19-.19m0-.28c-.26,0-.47.21-.47.47s.21.47.47.47.47-.21.47-.47-.21-.47-.47-.47h0Z"/>
        </g>
        <path class="cls-17" d="m17.69,112.89v.48c0,.11.09.2.2.2h.54c.11,0,.2-.09.2-.2v-.48h-.94Z"/>
        <path class="cls-17" d="m19.53,112.89v.48c0,.11.09.2.2.2h.54c.11,0,.2-.09.2-.2v-.48h-.94Z"/>
        <path class="cls-17" d="m21.27,112.89v.48c0,.11.09.2.2.2h.54c.11,0,.2-.09.2-.2v-.48h-.94Z"/>
        <path class="cls-17" d="m23.06,112.89v.48c0,.11.09.2.2.2h.54c.11,0,.2-.09.2-.2v-.48h-.94Z"/>
        <path class="cls-17" d="m18.66,106.21v-.48c0-.11-.09-.2-.2-.2h-.54c-.11,0-.2.09-.2.2v.48h.94Z"/>
        <path class="cls-17" d="m20.49,106.21v-.48c0-.11-.09-.2-.2-.2h-.54c-.11,0-.2.09-.2.2v.48h.94Z"/>
        <path class="cls-17" d="m22.23,106.21v-.48c0-.11-.09-.2-.2-.2h-.54c-.11,0-.2.09-.2.2v.48h.94Z"/>
        <path class="cls-17" d="m24.02,106.21v-.48c0-.11-.09-.2-.2-.2h-.54c-.11,0-.2.09-.2.2v.48h.94Z"/>
        <path d="m23.14,108.31c.1,0,.19.08.19.19s-.08.19-.19.19-.19-.08-.19-.19.08-.19.19-.19m0-.28c-.26,0-.47.21-.47.47s.21.47.47.47.47-.21.47-.47-.21-.47-.47-.47h0Z"/>
      </g>
    </g>
    <g>
      <path d="m77.94,53.05s-.92-4.92,3.69-3.46c4,1.23-5.38-6.15-5.38-6.15l-3.15,2.61,1.31,4.61,1,3.69,2.54-1.31Z"/>
      <path d="m58.95,53.05s-.92-4.92,3.69-3.46c4,1.23-5.38-6.15-5.38-6.15l-3.15,2.61,1.31,4.61,1,3.69,2.54-1.31Z"/>
      <path d="m82.17,83.19s-.92-4.92,3.69-3.46c4,1.23-5.38-6.15-5.38-6.15l-3.15,2.61,1.31,4.61,1,3.69,2.54-1.31Z"/>
      <g>
        <g>
          <path d="m41.81,38.29c0,2.31-1.31,3.15-2.77,3.15-.77,0-1.46-.46-3.69-.46h-5.07c-.08.62,0,1.46,0,2.61v2h1.54c3.31,0,4.69-.46,5.54-.46,1.46,0,2.77.62,2.77,3s-2,2.61-3.15,2.61c-.85,0-2.69-.38-5.31-.31h-1.38v3.54c0,1.46.23,2,.23,2.84,0,1.15-.69,2.61-3.84,2.61-2,0-2.92-1.38-2.92-2.46,0-1.15.38-1.46.46-2.92v-12.38c0-1.61-.46-2.84-.46-3.54,0-1,.46-2.46,2.31-2.46,1.69,0,4.31,0,8.69.23,1.54,0,2.92-.23,3.84-.23,1.85.08,3.23,1.08,3.23,2.61Zm8.76,15.99c-.69,0-.62.08-1.15.08-.38,0-.62-.62-.62-1l.08-11.38c0-2,.31-2.77.31-4.15s-1.08-2.61-3.38-2.61c-2.15,0-3.23,1.23-3.23,3.15,0,.85.46,1.92.46,2.77l-.08,13.69c0,3.92,2.84,4.84,5,4.84,2.54,0,4.46-.69,4.46-3.08,0-1.92-1.15-2.31-1.85-2.31Zm12.92-10.92c-2.54,0-3.77,1.15-3.77,3,0,2.08,1.23,2.54,2.23,2.54.46,0,.69-.08,1.08-.08.62,0,1.08.54,1.08,1.92,0,2.08-.77,3.69-3,3.69-1.92,0-3.08-1.38-3.08-3.38,0-2.38.69-2.54.69-4.38,0-1.46-.77-2.31-2.46-2.31-2.69,0-3.92,3-3.92,6.92,0,5,3.08,8.23,8.69,8.23,4.84,0,8.46-3.31,8.46-9,.08-4.23-2.46-7.15-6-7.15Zm18.99,0c-2.54,0-3.77,1.15-3.77,3,0,2.08,1.23,2.54,2.23,2.54.46,0,.69-.08,1.08-.08.62,0,1.08.54,1.08,1.92,0,2.08-.77,3.69-3,3.69-1.92,0-3.08-1.38-3.08-3.38,0-2.38.69-2.54.69-4.38,0-1.46-.77-2.31-2.46-2.31-2.69,0-3.92,3-3.92,6.92,0,5,3.08,8.23,8.69,8.23,4.84,0,8.46-3.31,8.46-9,.08-4.23-2.46-7.15-6-7.15Zm25.91,8.23c0,4.69-3.15,8-7.69,8-1.77,0-3.31-.46-4-1.31v3.23c0,.85.69,1.92.69,2.84,0,1.77-1.15,2.77-3.31,2.77-1.92,0-3.23-1-3.23-2.77,0-.92.23-2.31.23-3.77v-11.61c0-1.46-.38-2.31-.38-3.15,0-1.31.69-2.38,2.61-2.38,2.08,0,2.69.92,2.84,2.69.46-1.54,1.85-2.69,4.54-2.69,5.23,0,7.69,3.38,7.69,8.15Zm-5.31,0c0-1.92-1.08-2.92-2.77-2.92-2,0-2.54,1.69-2.54,3.31s1,2.61,2.61,2.61c2.08.08,2.69-1.46,2.69-3Zm24.68,8.92c0,3.08-2.15,6.69-7.53,6.69-4.69,0-6.92-1.61-6.92-4.61,0-1.46,1-3,2.61-3.77-4-.38-5.23-2.23-5.15-6.23v-4.46c0-.85-.54-1-.54-2.23,0-1.46,1.23-2.46,3-2.46,2.77,0,3.77,1.54,3.69,3.84,0,1.54-.38,3-.38,4.61,0,2,.54,3.23,2.46,3.23,2.15,0,2.46-1.69,2.46-3.15,0-2.15-.38-3.84-.38-5.07,0-1.69,1.31-3.31,3.46-3.31,2,0,3.15,1.46,3.15,3.31,0,2.31-.15,4.77-.15,7.46-.08,2.31.23,4.23.23,6.15Zm-4.77-2l-1.54.92c-1.08.69-1.85,1.08-1.85,2.23,0,.77.46,1.23,1.38,1.23,1.61,0,2-1.15,2-2.77v-1.61h0Zm-65.2,9.69c0,1.46,1.23,2.77,2.77,2.77,1.23,0,1.46-.38,3.61-.38h1.46c.08.62.15,1.08.15,2.08l-.08,10c0,1.61-.62,2.84-.62,3.54,0,1.31.62,3.31,3.69,3.31s3.61-1.31,3.61-2.92c0-.69-.46-1.61-.54-3.77-.08-2.08-.08-11.76,0-12.38,1.38,0,3.61.54,4.38.54,1.92,0,3.31-1,3.31-2.84s-.69-2.92-2.84-2.92c-.77,0-1.85.46-4.92.46h-7.3c-2.15,0-2.77-.23-3.77-.23-1.69-.15-2.92,1.08-2.92,2.77Zm17.84,12.84c0,5,3.08,8.23,8.69,8.23,4.84,0,8.46-3.31,8.46-9,0-4.23-2.54-7.07-6.07-7.07-2.54,0-3.77,1.15-3.77,3,0,2.08,1.23,2.54,2.23,2.54.46,0,.69-.08,1.08-.08.62,0,1.08.54,1.08,1.92,0,2.08-.77,3.69-3,3.69-1.92,0-3.08-1.38-3.08-3.38,0-2.38.69-2.54.69-4.38,0-1.46-.77-2.31-2.46-2.31-2.61-.08-3.84,2.92-3.84,6.84Zm33.14,5.46c.69,1.92,1.15,2.92,3.84,2.92,2.92,0,2.77-1.61,3.31-2.92.85-2.08,2.61-6.23,4-8.92,1.31-2.46-.38-4.31-2.84-4.31-1.85,0-3.23.62-3.69,2.69-.38,1.92-.69,3.92-1.38,5.84-.69-1.69-1.31-3.69-1.85-5.38-.85-2.69-2-3.15-4.38-3.15-1.69,0-2.46,1-2.46,1.92,0,1,.31,1.15.69,2-.46,1.69-1.31,2.92-2.15,4.61-.62-1.85-1-3.69-1.38-5.54-.46-2.46-1.85-3-3.84-3s-3.38,1.61-2.31,4.23c.92,2.15,2.69,6.69,3.61,9,.69,1.92,1,2.92,3.61,2.92,2.92,0,3-1.54,3.54-2.92.15-.54.92-2.31,1.77-3.61.77,1.08,1.77,3,1.92,3.61Zm22.45-7.84c1.92,0,2.23,1.54,2.23,3.69,0,1.15-.23,2.23-.23,3.31,0,2.23.77,3.84,3.84,3.84,1.92,0,3-.77,3-2.31,0-1.23-.46-1.69-.46-2.54v-3.61c0-4.38-1.69-7.77-6.46-7.77-2.46,0-4,.85-4.92,2.23-.08-1.23-1.08-2.23-3.46-2.23-1.54,0-2.92.85-2.92,2.31,0,1.77,1,.77,1,4.77,0,1.92-.38,4.61-.38,5.77,0,1.92.62,3.31,3.38,3.31s3.15-1.61,3.15-3.31c0-1.31-.54-2.23-.54-3.84-.23-2.23.54-3.61,2.77-3.61Zm11.3,6.61c-.38,1.77,1.23,3.46,2.77,3.77,1.92.46,4.15.15,4.77-2.46.38-1.85-1-3.54-2.69-3.92-2.54-.54-4.38.38-4.84,2.61Zm4.07-6.15c-.15.54-.15,1.38.92,1.61.77.15,1.46-.15,1.61-1,0-.15,0-.54.08-.92.85-3.92,4.07-6.46,4.69-9.23.31-1.38-.23-3.46-3-4.07-3.08-.69-4.07,1.31-4.38,2.77s1.08,6.46.38,9.84c-.15.46-.31,1-.31,1Z"/>
          <path class="cls-2" d="m41.81,38.29c0,2.31-1.31,3.15-2.77,3.15-.77,0-1.46-.46-3.69-.46h-5.07c-.08.62,0,1.46,0,2.61v2h1.54c3.31,0,4.69-.46,5.54-.46,1.46,0,2.77.62,2.77,3s-2,2.61-3.15,2.61c-.85,0-2.69-.38-5.31-.31h-1.38v3.54c0,1.46.23,2,.23,2.84,0,1.15-.69,2.61-3.84,2.61-2,0-2.92-1.38-2.92-2.46,0-1.15.38-1.46.46-2.92v-12.38c0-1.61-.46-2.84-.46-3.54,0-1,.46-2.46,2.31-2.46,1.69,0,4.31,0,8.69.23,1.54,0,2.92-.23,3.84-.23,1.85.08,3.23,1.08,3.23,2.61Zm8.76,15.99c-.69,0-.62.08-1.15.08-.38,0-.62-.62-.62-1l.08-11.38c0-2,.31-2.77.31-4.15s-1.08-2.61-3.38-2.61c-2.15,0-3.23,1.23-3.23,3.15,0,.85.46,1.92.46,2.77l-.08,13.69c0,3.92,2.84,4.84,5,4.84,2.54,0,4.46-.69,4.46-3.08,0-1.92-1.15-2.31-1.85-2.31Zm12.92-10.92c-2.54,0-3.77,1.15-3.77,3,0,2.08,1.23,2.54,2.23,2.54.46,0,.69-.08,1.08-.08.62,0,1.08.54,1.08,1.92,0,2.08-.77,3.69-3,3.69-1.92,0-3.08-1.38-3.08-3.38,0-2.38.69-2.54.69-4.38,0-1.46-.77-2.31-2.46-2.31-2.69,0-3.92,3-3.92,6.92,0,5,3.08,8.23,8.69,8.23,4.84,0,8.46-3.31,8.46-9,.08-4.23-2.46-7.15-6-7.15Zm18.99,0c-2.54,0-3.77,1.15-3.77,3,0,2.08,1.23,2.54,2.23,2.54.46,0,.69-.08,1.08-.08.62,0,1.08.54,1.08,1.92,0,2.08-.77,3.69-3,3.69-1.92,0-3.08-1.38-3.08-3.38,0-2.38.69-2.54.69-4.38,0-1.46-.77-2.31-2.46-2.31-2.69,0-3.92,3-3.92,6.92,0,5,3.08,8.23,8.69,8.23,4.84,0,8.46-3.31,8.46-9,.08-4.23-2.46-7.15-6-7.15Zm25.91,8.23c0,4.69-3.15,8-7.69,8-1.77,0-3.31-.46-4-1.31v3.23c0,.85.69,1.92.69,2.84,0,1.77-1.15,2.77-3.31,2.77-1.92,0-3.23-1-3.23-2.77,0-.92.23-2.31.23-3.77v-11.61c0-1.46-.38-2.31-.38-3.15,0-1.31.69-2.38,2.61-2.38,2.08,0,2.69.92,2.84,2.69.46-1.54,1.85-2.69,4.54-2.69,5.23,0,7.69,3.38,7.69,8.15Zm-5.31,0c0-1.92-1.08-2.92-2.77-2.92-2,0-2.54,1.69-2.54,3.31s1,2.61,2.61,2.61c2.08.08,2.69-1.46,2.69-3Zm24.68,8.92c0,3.08-2.15,6.69-7.53,6.69-4.69,0-6.92-1.61-6.92-4.61,0-1.46,1-3,2.61-3.77-4-.38-5.23-2.23-5.15-6.23v-4.46c0-.85-.54-1-.54-2.23,0-1.46,1.23-2.46,3-2.46,2.77,0,3.77,1.54,3.69,3.84,0,1.54-.38,3-.38,4.61,0,2,.54,3.23,2.46,3.23,2.15,0,2.46-1.69,2.46-3.15,0-2.15-.38-3.84-.38-5.07,0-1.69,1.31-3.31,3.46-3.31,2,0,3.15,1.46,3.15,3.31,0,2.31-.15,4.77-.15,7.46-.08,2.31.23,4.23.23,6.15Zm-4.77-2l-1.54.92c-1.08.69-1.85,1.08-1.85,2.23,0,.77.46,1.23,1.38,1.23,1.61,0,2-1.15,2-2.77v-1.61h0Zm-65.2,9.69c0,1.46,1.23,2.77,2.77,2.77,1.23,0,1.46-.38,3.61-.38h1.46c.08.62.15,1.08.15,2.08l-.08,10c0,1.61-.62,2.84-.62,3.54,0,1.31.62,3.31,3.69,3.31s3.61-1.31,3.61-2.92c0-.69-.46-1.61-.54-3.77-.08-2.08-.08-11.76,0-12.38,1.38,0,3.61.54,4.38.54,1.92,0,3.31-1,3.31-2.84s-.69-2.92-2.84-2.92c-.77,0-1.85.46-4.92.46h-7.3c-2.15,0-2.77-.23-3.77-.23-1.69-.15-2.92,1.08-2.92,2.77Zm17.84,12.84c0,5,3.08,8.23,8.69,8.23,4.84,0,8.46-3.31,8.46-9,0-4.23-2.54-7.07-6.07-7.07-2.54,0-3.77,1.15-3.77,3,0,2.08,1.23,2.54,2.23,2.54.46,0,.69-.08,1.08-.08.62,0,1.08.54,1.08,1.92,0,2.08-.77,3.69-3,3.69-1.92,0-3.08-1.38-3.08-3.38,0-2.38.69-2.54.69-4.38,0-1.46-.77-2.31-2.46-2.31-2.61-.08-3.84,2.92-3.84,6.84Zm33.14,5.46c.69,1.92,1.15,2.92,3.84,2.92,2.92,0,2.77-1.61,3.31-2.92.85-2.08,2.61-6.23,4-8.92,1.31-2.46-.38-4.31-2.84-4.31-1.85,0-3.23.62-3.69,2.69-.38,1.92-.69,3.92-1.38,5.84-.69-1.69-1.31-3.69-1.85-5.38-.85-2.69-2-3.15-4.38-3.15-1.69,0-2.46,1-2.46,1.92,0,1,.31,1.15.69,2-.46,1.69-1.31,2.92-2.15,4.61-.62-1.85-1-3.69-1.38-5.54-.46-2.46-1.85-3-3.84-3s-3.38,1.61-2.31,4.23c.92,2.15,2.69,6.69,3.61,9,.69,1.92,1,2.92,3.61,2.92,2.92,0,3-1.54,3.54-2.92.15-.54.92-2.31,1.77-3.61.77,1.08,1.77,3,1.92,3.61Zm22.45-7.84c1.92,0,2.23,1.54,2.23,3.69,0,1.15-.23,2.23-.23,3.31,0,2.23.77,3.84,3.84,3.84,1.92,0,3-.77,3-2.31,0-1.23-.46-1.69-.46-2.54v-3.61c0-4.38-1.69-7.77-6.46-7.77-2.46,0-4,.85-4.92,2.23-.08-1.23-1.08-2.23-3.46-2.23-1.54,0-2.92.85-2.92,2.31,0,1.77,1,.77,1,4.77,0,1.92-.38,4.61-.38,5.77,0,1.92.62,3.31,3.38,3.31s3.15-1.61,3.15-3.31c0-1.31-.54-2.23-.54-3.84-.23-2.23.54-3.61,2.77-3.61Zm11.3,6.61c-.38,1.77,1.23,3.46,2.77,3.77,1.92.46,4.15.15,4.77-2.46.38-1.85-1-3.54-2.69-3.92-2.54-.54-4.38.38-4.84,2.61Zm4.07-6.15c-.15.54-.15,1.38.92,1.61.77.15,1.46-.15,1.61-1,0-.15,0-.54.08-.92.85-3.92,4.07-6.46,4.69-9.23.31-1.38-.23-3.46-3-4.07-3.08-.69-4.07,1.31-4.38,2.77s1.08,6.46.38,9.84c-.15.46-.31,1-.31,1Z"/>
        </g>
        <g>
          <path class="cls-13" d="m39.58,36.13c0,2.31-1.31,3.15-2.77,3.15-.77,0-1.46-.46-3.69-.46h-5.07c-.08.62,0,1.46,0,2.61v2h1.54c3.31,0,4.69-.46,5.54-.46,1.46,0,2.77.62,2.77,3s-2,2.61-3.15,2.61c-.85,0-2.69-.38-5.31-.31h-1.38v3.54c0,1.46.23,2,.23,2.84,0,1.15-.69,2.61-3.84,2.61-2,0-2.92-1.38-2.92-2.46,0-1.15.38-1.46.46-2.92v-12.38c0-1.61-.46-2.84-.46-3.54,0-1,.46-2.46,2.31-2.46,1.69,0,4.31,0,8.69.23,1.54,0,2.92-.23,3.84-.23,1.92,0,3.23,1.08,3.23,2.61Zm8.84,15.99c-.69,0-.62.08-1.15.08-.38,0-.62-.62-.62-1l.08-11.38c0-2,.31-2.77.31-4.15s-1.08-2.61-3.38-2.61c-2.15,0-3.23,1.23-3.23,3.15,0,.85.46,1.92.46,2.77l-.08,13.69c0,3.92,2.84,4.84,5,4.84,2.54,0,4.46-.69,4.46-3.08,0-1.92-1.23-2.31-1.85-2.31Zm12.84-10.92c-2.54,0-3.77,1.15-3.77,3,0,2.08,1.23,2.54,2.23,2.54.46,0,.69-.08,1.08-.08.62,0,1.08.54,1.08,1.92,0,2.08-.77,3.69-3,3.69-1.92,0-3.08-1.38-3.08-3.38,0-2.38.69-2.54.69-4.38,0-1.46-.77-2.31-2.46-2.31-2.69,0-3.92,3-3.92,6.92,0,5,3.08,8.23,8.69,8.23,4.84,0,8.46-3.31,8.46-9,.15-4.31-2.38-7.15-6-7.15Zm18.99,0c-2.54,0-3.77,1.15-3.77,3,0,2.08,1.23,2.54,2.23,2.54.46,0,.69-.08,1.08-.08.62,0,1.08.54,1.08,1.92,0,2.08-.77,3.69-3,3.69-1.92,0-3.08-1.38-3.08-3.38,0-2.38.69-2.54.69-4.38,0-1.46-.77-2.31-2.46-2.31-2.69,0-3.92,3-3.92,6.92,0,5,3.08,8.23,8.69,8.23,4.84,0,8.46-3.31,8.46-9,.15-4.31-2.38-7.15-6-7.15Zm25.91,8.23c0,4.69-3.15,8-7.69,8-1.77,0-3.31-.46-4-1.31v3.23c0,.85.69,1.92.69,2.84,0,1.77-1.15,2.77-3.31,2.77-1.92,0-3.23-1-3.23-2.77,0-.92.23-2.31.23-3.77v-11.61c0-1.46-.38-2.31-.38-3.15,0-1.31.69-2.38,2.61-2.38,2.08,0,2.69.92,2.84,2.69.46-1.54,1.85-2.69,4.54-2.69,5.31,0,7.69,3.38,7.69,8.15Zm-5.23,0c0-1.92-1.08-2.92-2.77-2.92-2,0-2.54,1.69-2.54,3.31s1,2.61,2.61,2.61c2,0,2.69-1.46,2.69-3Zm24.68,8.92c0,3.08-2.15,6.69-7.53,6.69-4.69,0-6.92-1.61-6.92-4.61,0-1.46,1-3,2.61-3.77-4-.38-5.23-2.23-5.15-6.23v-4.46c0-.85-.54-1-.54-2.23,0-1.46,1.23-2.46,3-2.46,2.77,0,3.77,1.54,3.69,3.84,0,1.54-.38,3-.38,4.61,0,2,.54,3.23,2.46,3.23,2.15,0,2.46-1.69,2.46-3.15,0-2.15-.38-3.84-.38-5.07,0-1.69,1.31-3.31,3.46-3.31,2,0,3.15,1.46,3.15,3.31,0,2.31-.15,4.77-.15,7.46-.08,2.31.23,4.23.23,6.15Zm-4.84-2.08l-1.54.92c-1.08.69-1.85,1.08-1.85,2.23,0,.77.46,1.23,1.38,1.23,1.61,0,2-1.15,2-2.77v-1.61h0Zm-65.2,9.69c0,1.46,1.23,2.77,2.77,2.77,1.23,0,1.46-.38,3.61-.38h1.46c.08.62.15,1.08.15,2.08l-.08,10c0,1.61-.62,2.84-.62,3.54,0,1.31.62,3.31,3.69,3.31s3.61-1.31,3.61-2.92c0-.69-.46-1.61-.54-3.77-.08-2.08-.08-11.76,0-12.38,1.38,0,3.61.54,4.38.54,1.92,0,3.31-1,3.31-2.84s-.69-2.92-2.84-2.92c-.77,0-1.85.46-4.92.46h-7.3c-2.15,0-2.77-.23-3.77-.23-1.69-.08-2.92,1.15-2.92,2.77Zm17.91,12.84c0,5,3.08,8.23,8.69,8.23,4.84,0,8.46-3.31,8.46-9,0-4.23-2.54-7.07-6.07-7.07-2.54,0-3.77,1.15-3.77,3,0,2.08,1.23,2.54,2.23,2.54.46,0,.69-.08,1.08-.08.62,0,1.08.54,1.08,1.92,0,2.08-.77,3.69-3,3.69-1.92,0-3.08-1.38-3.08-3.38,0-2.38.69-2.54.69-4.38,0-1.46-.77-2.31-2.46-2.31-2.69,0-3.84,2.92-3.84,6.84Zm33.14,5.54c.69,1.92,1.15,2.92,3.84,2.92,2.92,0,2.77-1.61,3.31-2.92.85-2.08,2.61-6.23,4-8.92,1.31-2.46-.38-4.31-2.84-4.31-1.85,0-3.23.62-3.69,2.69-.38,1.92-.69,3.92-1.38,5.84-.69-1.69-1.31-3.69-1.85-5.38-.85-2.69-2-3.15-4.38-3.15-1.69,0-2.46,1-2.46,1.92,0,1,.31,1.15.69,2-.46,1.69-1.31,2.92-2.15,4.61-.62-1.85-1-3.69-1.38-5.54-.46-2.46-1.85-3-3.84-3s-3.38,1.61-2.31,4.23c.92,2.15,2.69,6.69,3.61,9,.69,1.92,1,2.92,3.61,2.92,2.92,0,3-1.54,3.54-2.92.15-.54.92-2.31,1.77-3.61.77,1.08,1.69,3,1.92,3.61Zm22.37-7.92c1.92,0,2.23,1.54,2.23,3.69,0,1.15-.23,2.23-.23,3.31,0,2.23.77,3.84,3.84,3.84,1.92,0,3-.77,3-2.31,0-1.23-.46-1.69-.46-2.54v-3.61c0-4.38-1.69-7.77-6.46-7.77-2.46,0-4,.85-4.92,2.23-.08-1.23-1.08-2.23-3.46-2.23-1.54,0-2.92.85-2.92,2.31,0,1.77,1,.77,1,4.77,0,1.92-.38,4.61-.38,5.77,0,1.92.62,3.31,3.38,3.31s3.15-1.61,3.15-3.31c0-1.31-.54-2.23-.54-3.84-.15-2.23.62-3.61,2.77-3.61Zm11.3,6.69c-.38,1.77,1.23,3.46,2.77,3.77,1.92.46,4.15.15,4.77-2.46.38-1.85-1-3.54-2.69-3.92-2.46-.54-4.31.38-4.84,2.61Zm4.07-6.15c-.15.54-.15,1.38.92,1.61.77.15,1.46-.15,1.61-1,0-.15,0-.54.08-.92.85-3.92,4.07-6.46,4.69-9.23.31-1.38-.23-3.46-3-4.07-3.08-.69-4.07,1.31-4.38,2.77s1.08,6.46.38,9.84c-.08.46-.31,1-.31,1Z"/>
          <path class="cls-2" d="m39.58,36.13c0,2.31-1.31,3.15-2.77,3.15-.77,0-1.46-.46-3.69-.46h-5.07c-.08.62,0,1.46,0,2.61v2h1.54c3.31,0,4.69-.46,5.54-.46,1.46,0,2.77.62,2.77,3s-2,2.61-3.15,2.61c-.85,0-2.69-.38-5.31-.31h-1.38v3.54c0,1.46.23,2,.23,2.84,0,1.15-.69,2.61-3.84,2.61-2,0-2.92-1.38-2.92-2.46,0-1.15.38-1.46.46-2.92v-12.38c0-1.61-.46-2.84-.46-3.54,0-1,.46-2.46,2.31-2.46,1.69,0,4.31,0,8.69.23,1.54,0,2.92-.23,3.84-.23,1.92,0,3.23,1.08,3.23,2.61Zm8.84,15.99c-.69,0-.62.08-1.15.08-.38,0-.62-.62-.62-1l.08-11.38c0-2,.31-2.77.31-4.15s-1.08-2.61-3.38-2.61c-2.15,0-3.23,1.23-3.23,3.15,0,.85.46,1.92.46,2.77l-.08,13.69c0,3.92,2.84,4.84,5,4.84,2.54,0,4.46-.69,4.46-3.08,0-1.92-1.23-2.31-1.85-2.31Zm12.84-10.92c-2.54,0-3.77,1.15-3.77,3,0,2.08,1.23,2.54,2.23,2.54.46,0,.69-.08,1.08-.08.62,0,1.08.54,1.08,1.92,0,2.08-.77,3.69-3,3.69-1.92,0-3.08-1.38-3.08-3.38,0-2.38.69-2.54.69-4.38,0-1.46-.77-2.31-2.46-2.31-2.69,0-3.92,3-3.92,6.92,0,5,3.08,8.23,8.69,8.23,4.84,0,8.46-3.31,8.46-9,.15-4.31-2.38-7.15-6-7.15Zm18.99,0c-2.54,0-3.77,1.15-3.77,3,0,2.08,1.23,2.54,2.23,2.54.46,0,.69-.08,1.08-.08.62,0,1.08.54,1.08,1.92,0,2.08-.77,3.69-3,3.69-1.92,0-3.08-1.38-3.08-3.38,0-2.38.69-2.54.69-4.38,0-1.46-.77-2.31-2.46-2.31-2.69,0-3.92,3-3.92,6.92,0,5,3.08,8.23,8.69,8.23,4.84,0,8.46-3.31,8.46-9,.15-4.31-2.38-7.15-6-7.15Zm25.91,8.23c0,4.69-3.15,8-7.69,8-1.77,0-3.31-.46-4-1.31v3.23c0,.85.69,1.92.69,2.84,0,1.77-1.15,2.77-3.31,2.77-1.92,0-3.23-1-3.23-2.77,0-.92.23-2.31.23-3.77v-11.61c0-1.46-.38-2.31-.38-3.15,0-1.31.69-2.38,2.61-2.38,2.08,0,2.69.92,2.84,2.69.46-1.54,1.85-2.69,4.54-2.69,5.31,0,7.69,3.38,7.69,8.15Zm-5.23,0c0-1.92-1.08-2.92-2.77-2.92-2,0-2.54,1.69-2.54,3.31s1,2.61,2.61,2.61c2,0,2.69-1.46,2.69-3Zm24.68,8.92c0,3.08-2.15,6.69-7.53,6.69-4.69,0-6.92-1.61-6.92-4.61,0-1.46,1-3,2.61-3.77-4-.38-5.23-2.23-5.15-6.23v-4.46c0-.85-.54-1-.54-2.23,0-1.46,1.23-2.46,3-2.46,2.77,0,3.77,1.54,3.69,3.84,0,1.54-.38,3-.38,4.61,0,2,.54,3.23,2.46,3.23,2.15,0,2.46-1.69,2.46-3.15,0-2.15-.38-3.84-.38-5.07,0-1.69,1.31-3.31,3.46-3.31,2,0,3.15,1.46,3.15,3.31,0,2.31-.15,4.77-.15,7.46-.08,2.31.23,4.23.23,6.15Zm-4.84-2.08l-1.54.92c-1.08.69-1.85,1.08-1.85,2.23,0,.77.46,1.23,1.38,1.23,1.61,0,2-1.15,2-2.77v-1.61h0Zm-65.2,9.69c0,1.46,1.23,2.77,2.77,2.77,1.23,0,1.46-.38,3.61-.38h1.46c.08.62.15,1.08.15,2.08l-.08,10c0,1.61-.62,2.84-.62,3.54,0,1.31.62,3.31,3.69,3.31s3.61-1.31,3.61-2.92c0-.69-.46-1.61-.54-3.77-.08-2.08-.08-11.76,0-12.38,1.38,0,3.61.54,4.38.54,1.92,0,3.31-1,3.31-2.84s-.69-2.92-2.84-2.92c-.77,0-1.85.46-4.92.46h-7.3c-2.15,0-2.77-.23-3.77-.23-1.69-.08-2.92,1.15-2.92,2.77Zm17.91,12.84c0,5,3.08,8.23,8.69,8.23,4.84,0,8.46-3.31,8.46-9,0-4.23-2.54-7.07-6.07-7.07-2.54,0-3.77,1.15-3.77,3,0,2.08,1.23,2.54,2.23,2.54.46,0,.69-.08,1.08-.08.62,0,1.08.54,1.08,1.92,0,2.08-.77,3.69-3,3.69-1.92,0-3.08-1.38-3.08-3.38,0-2.38.69-2.54.69-4.38,0-1.46-.77-2.31-2.46-2.31-2.69,0-3.84,2.92-3.84,6.84Zm33.14,5.54c.69,1.92,1.15,2.92,3.84,2.92,2.92,0,2.77-1.61,3.31-2.92.85-2.08,2.61-6.23,4-8.92,1.31-2.46-.38-4.31-2.84-4.31-1.85,0-3.23.62-3.69,2.69-.38,1.92-.69,3.92-1.38,5.84-.69-1.69-1.31-3.69-1.85-5.38-.85-2.69-2-3.15-4.38-3.15-1.69,0-2.46,1-2.46,1.92,0,1,.31,1.15.69,2-.46,1.69-1.31,2.92-2.15,4.61-.62-1.85-1-3.69-1.38-5.54-.46-2.46-1.85-3-3.84-3s-3.38,1.61-2.31,4.23c.92,2.15,2.69,6.69,3.61,9,.69,1.92,1,2.92,3.61,2.92,2.92,0,3-1.54,3.54-2.92.15-.54.92-2.31,1.77-3.61.77,1.08,1.69,3,1.92,3.61Zm22.37-7.92c1.92,0,2.23,1.54,2.23,3.69,0,1.15-.23,2.23-.23,3.31,0,2.23.77,3.84,3.84,3.84,1.92,0,3-.77,3-2.31,0-1.23-.46-1.69-.46-2.54v-3.61c0-4.38-1.69-7.77-6.46-7.77-2.46,0-4,.85-4.92,2.23-.08-1.23-1.08-2.23-3.46-2.23-1.54,0-2.92.85-2.92,2.31,0,1.77,1,.77,1,4.77,0,1.92-.38,4.61-.38,5.77,0,1.92.62,3.31,3.38,3.31s3.15-1.61,3.15-3.31c0-1.31-.54-2.23-.54-3.84-.15-2.23.62-3.61,2.77-3.61Zm11.3,6.69c-.38,1.77,1.23,3.46,2.77,3.77,1.92.46,4.15.15,4.77-2.46.38-1.85-1-3.54-2.69-3.92-2.46-.54-4.31.38-4.84,2.61Zm4.07-6.15c-.15.54-.15,1.38.92,1.61.77.15,1.46-.15,1.61-1,0-.15,0-.54.08-.92.85-3.92,4.07-6.46,4.69-9.23.31-1.38-.23-3.46-3-4.07-3.08-.69-4.07,1.31-4.38,2.77s1.08,6.46.38,9.84c-.08.46-.31,1-.31,1Z"/>
        </g>
      </g>
    </g>
    <g>
      <g>
        <path d="m57.26,36.6v-6.3c0-.15,0-.31.08-.46,0-.15.08-.23.15-.31.08-.08.23-.15.46-.23.23-.08.46-.08.85,0,.23.08.38.15.46.23s.15.15.23.31c0,.08.08.23.08.38v6.46c0,.23,0,.38-.08.54s-.15.23-.31.31c-.15.08-.38.15-.69.15s-.54-.08-.69-.15c-.15-.08-.23-.23-.31-.38-.23-.15-.23-.31-.23-.54Zm14.3-4.07l-1,3.77c0,.08-.08.23-.15.46s-.15.38-.23.54c-.08.15-.15.23-.23.31-.08.08-.23.15-.38.15h-.85c-.08,0-.15-.08-.23-.15-.08-.08-.15-.15-.23-.23-.08-.08-.08-.23-.15-.31l-.31-1c-.08-.15-.08-.23-.15-.23s-.08.08-.15.23l-.15.77c-.08.23-.15.46-.15.54-.08.08-.15.23-.23.31-.15.08-.38.15-.77.15h-.38c-.15,0-.31-.08-.38-.15-.08-.08-.15-.15-.23-.31-.08-.15-.15-.46-.31-.92l-1.23-4v-.15c0-.08.08-.23.15-.31.08-.08.15-.15.31-.15.15-.08.31-.08.54-.08.31,0,.46,0,.62.15.15.08.31.38.38.85l.38,1.38c.08.23.08.38.15.38h.15s.08-.15.08-.31l.38-1.54c.08-.31.08-.46.15-.54,0-.08.08-.15.23-.23.08-.08.31-.15.62-.15s.54.08.62.15c.15.15.23.31.31.62l.38,1.61c0,.08,0,.15.08.23,0,.08.08.15.08.15h.08s.08-.15.15-.46l.38-1.69c.08-.31.15-.46.31-.62.15-.08.38-.15.69-.15.38,0,.62.08.77.23.08.15.15.23.15.38-.15,0-.15.15-.23.31Zm2.92,5.23c-.77,0-1.31-.15-1.69-.46-.31-.31-.46-.69-.46-1.15s.15-.85.38-1.15c.15-.15.31-.31.46-.46.23-.15.46-.31.77-.46.31-.15.62-.23.77-.31l1.31-.31c.08-.08.15-.08.15-.08,0,0,0-.08-.08-.15-.08-.08-.15-.08-.31-.08-.31,0-.62,0-.92.15-.31.15-.46.23-.54.23l-.31.23c-.15.08-.31.15-.54.15s-.46-.08-.62-.31c-.15-.23-.31-.38-.31-.62s.08-.38.31-.69c.31-.31.69-.54,1.08-.62s.69-.15.85-.15.38,0,.46-.08h.62c.23,0,.38.08.62.08.23.08.38.08.46.15.08,0,.23.08.31.15.15.08.31.23.46.38s.31.54.31,1.08v2.69c0,.23.08.38.08.46s.08.23.08.38c.08.15.08.23.08.31,0,.15-.08.23-.15.31-.08.08-.23.15-.38.23-.23.08-.38.08-.54.08-.23,0-.46-.08-.62-.23-.15-.15-.31-.23-.38-.23,0,0-.08,0-.23.08-.08.08-.23.08-.38.15-.15.08-.31.08-.46.08s-.31.08-.46.08c-.08.08-.15.08-.15.08Zm-.15-1.92c0,.08.08.23.15.31.08.08.23.15.46.15.23.08.54-.08,1-.31.08-.08.15-.08.23-.15,0-.08.08-.08.08-.15s0-.08.08-.15v-.23c0-.31-.08-.38-.08-.46,0,0-.08,0-.15-.08h-.15c-.08,0-.31.08-.62.15-.31.08-.54.23-.69.38-.23.31-.31.46-.31.54Zm10.84-1.77v2.92c0,.15-.08.31-.23.46-.15.15-.38.23-.77.23-.31,0-.54-.08-.62-.23s-.15-.23-.15-.38v-2.54c0-.38,0-.62-.08-.77,0-.15-.08-.23-.15-.31s-.15-.15-.31-.23-.31-.15-.46-.15h-.38c-.15,0-.23,0-.38.08-.08,0-.23.08-.31.15l-.31.31c-.08.15-.15.31-.15.69v2.92c0,.08-.08.15-.23.31s-.38.23-.77.15c-.31,0-.54-.08-.62-.15s-.15-.23-.15-.31-.08-.38-.08-.77v-4.46c0-.08.08-.15.15-.23.08-.08.23-.15.31-.15h.31c.15,0,.38.08.54.15.15.08.31.15.31.15,0,0,.23-.08.54-.15.31-.15.62-.15.92-.23h.69c.15,0,.31.08.46.08s.38.08.62.23c.31.08.54.31.69.54s.31.46.38.62.08.31.08.46c.15.08.15.31.15.62Zm3.69-.69v2.31c0,.08.08.08.15.15.08,0,.15.08.23.08h.46c.15,0,.31,0,.38.08l.23.23c.08.08.08.23.08.46s0,.46-.08.62c-.08.08-.08.15-.15.23-.08.08-.15.08-.38.15-.15,0-.38.08-.69.08h-.77c-.23,0-.46,0-.62-.08s-.31-.15-.38-.23-.23-.23-.23-.31c-.08-.15-.08-.23-.08-.38v-3.23c0-.08,0-.15-.08-.23s-.15-.08-.23-.08h-.46c-.08,0-.15,0-.23-.08-.08,0-.08-.08-.15-.15s-.08-.23-.08-.38v-.46c0-.15.08-.31.15-.38.08-.08.23-.15.38-.15h.31q.15,0,.23-.08s.08-.08.08-.15v-.92c0-.23.08-.38.15-.54.15-.15.38-.23.69-.23.38,0,.62.08.77.23s.23.31.23.54v.92c0,.08.08.08.15.15s.15.08.23.08h.46c.31,0,.54,0,.62.08s.15.23.15.38.08.31,0,.46c0,.23-.08.46-.15.54s-.15.08-.23.15h-1c-.08,0-.15,0-.23.08.15,0,.08,0,.08.08Zm8,4.38c-.77,0-1.31-.15-1.69-.46-.31-.31-.46-.69-.46-1.15s.15-.85.38-1.15l.46-.46c.23-.15.46-.31.77-.46.31-.15.62-.23.77-.31l1.31-.31c.08-.08.15-.08.15-.08,0,0,0-.08-.08-.15-.08-.08-.15-.08-.31-.08-.31,0-.62,0-.92.15s-.46.23-.54.23l-.31.23c-.15.08-.31.15-.54.15s-.46-.08-.62-.31c-.15-.23-.31-.38-.31-.62s.08-.38.31-.69c.31-.31.69-.54,1.08-.62s.69-.15.85-.15.38,0,.46-.08h.62c.23,0,.38.08.62.08.23.08.38.08.46.15.08,0,.23.08.31.15.15.08.31.23.46.38.15.15.31.54.31,1.08v2.69c0,.23.08.38.08.46s.08.23.08.38c.08.15.08.23.08.31,0,.15-.08.23-.15.31s-.23.15-.38.23c-.23.08-.38.08-.54.08-.23,0-.46-.08-.62-.23s-.31-.23-.38-.23c0,0-.08,0-.23.08-.08.08-.23.08-.38.15-.15.08-.31.08-.46.08s-.31.08-.46.08c0,.08-.08.08-.15.08Zm-.08-1.92c0,.08.08.23.15.31s.23.15.46.15c.23.08.54-.08,1-.31.08-.08.15-.08.23-.15,0-.08.08-.08.08-.15s0-.08.08-.15v-.23c0-.31-.08-.38-.08-.46,0,0-.08,0-.15-.08h-.15c-.08,0-.31.08-.62.15-.31.08-.54.23-.69.38-.23.31-.31.46-.31.54Zm8.07,1v-6.38c0-.38.08-.62.23-.77s.31-.23.38-.23c.15,0,.38-.08.77-.08h3.92c.23,0,.46,0,.69.08.23.08.46.15.62.23s.31.23.46.46c.15.23.31.46.38.77s.08.62.08,1c0,.31-.08.69-.15.92-.08.31-.15.54-.31.69s-.23.31-.31.38c-.08.08-.15.15-.31.23s-.15.15-.15.15c0,0,0,.08.08.08l.31.54.69,1.15c.15.23.23.46.23.62s-.08.31-.23.46c-.15.15-.31.23-.54.31-.23.08-.46.08-.62.08s-.31,0-.38-.08l-.23-.23c-.08-.08-.23-.38-.46-.85l-.69-1.38c-.15-.31-.31-.54-.31-.54l-.08-.08h-1.38c-.15,0-.23,0-.23.08-.08.08-.08.15-.08.38v1.69c0,.31,0,.54-.08.62,0,.08-.08.15-.15.23-.08.08-.23.15-.31.15-.15,0-.31.08-.46.08-.23,0-.38,0-.54-.08s-.23-.08-.31-.15-.15-.15-.23-.31c-.31.08-.31-.08-.31-.23Zm2.69-4.15h1.77c.23,0,.38,0,.54-.08s.23-.08.31-.15.08-.15.15-.23c.08-.08.08-.23.08-.38s-.08-.31-.23-.46c-.15-.15-.31-.15-.54-.15h-2.31c-.08,0-.15,0-.23.08s-.08.15-.08.31v.69c0,.15,0,.23.08.31.08,0,.23.08.46.08Zm5.38,1v-.38c0-.15,0-.38.08-.62s.08-.46.15-.69c.08-.23.15-.46.31-.69.15-.23.23-.46.38-.62s.31-.38.46-.46c.15-.15.31-.23.38-.31.15-.08.23-.15.31-.15.08-.08.23-.08.38-.15.15-.08.38-.15.69-.15.31-.08.62-.08.92-.08h.54c.23,0,.46,0,.69.08.23.08.46.08.62.15.15.08.31.15.46.23.15.08.31.15.38.23.15.08.23.23.38.31.08.08.23.23.46.54.15.23.31.54.46.85.15.31.23.62.31.92.08.31.08.54.08.77v.54c0,.31-.08.54-.08.85-.08.31-.15.54-.23.77s-.15.46-.31.62c-.08.15-.23.31-.38.46-.15.15-.23.31-.38.38-.15.15-.31.23-.46.31-.15.08-.31.15-.54.31-.23.08-.38.15-.62.23s-.38.08-.62.08-.46.08-.77,0h-.54c-.31,0-.54-.08-.77-.08-.23-.08-.46-.15-.77-.23-.31-.15-.54-.23-.69-.38s-.31-.23-.46-.38c-.15-.15-.23-.31-.31-.38-.08-.08-.23-.31-.31-.54-.15-.23-.23-.46-.23-.62-.08-.15-.08-.31-.08-.54,0-.15-.08-.38-.08-.54.15-.38.15-.54.15-.62Zm2.31-.15v.46c0,.23.08.54.23.77.15.31.38.54.62.69.31.15.62.31,1.08.31.62,0,1.08-.15,1.38-.54.31-.31.54-.69.54-1,.08-.31.08-.62.08-.77,0-.38-.08-.69-.15-.92-.08-.31-.23-.54-.46-.77s-.46-.38-.69-.46c-.23-.08-.46-.08-.62-.08s-.38,0-.62.08-.46.15-.69.38c-.23.23-.38.46-.46.69-.15.38-.23.69-.23,1.15Zm13.15,3.15v-2.61c0-.08,0-.15-.08-.15,0,0-.08,0-.08.08,0,0-.08.15-.08.31l-.92,2.84c-.08.23-.15.38-.31.46s-.31.15-.62.08h-.31c-.08,0-.23-.08-.31-.15s-.15-.23-.31-.54l-.23-.62-.77-2.31-.08-.23s0-.08-.08-.08h-.15v3.08c0,.23,0,.38-.08.46,0,.08-.08.15-.15.23-.08.08-.15.08-.31.15-.15,0-.31.08-.46.08s-.31,0-.46-.08c-.15,0-.31-.08-.46-.23-.15-.15-.23-.38-.23-.69v-6.38c0-.38.08-.62.23-.77s.31-.23.46-.23c.23,0,.38-.08.54-.08.23,0,.46.08.62.15s.31.15.38.31.15.23.23.38l1.38,3.69c.08.15.15.31.15.31h.15s.08-.08.08-.15l.08-.31,1.38-3.69c.08-.23.23-.38.38-.54s.46-.15.85-.15c.23,0,.46,0,.54.08.15.08.23.15.38.23s.15.31.15.69v6.46c0,.23,0,.38-.08.54,0,.15-.08.23-.15.31s-.15.15-.31.15-.31.08-.62.08-.54-.08-.69-.23c-.08-.08-.08-.15-.15-.23.46-.15.46-.38.46-.69Zm6.3-6.54c0-.23,0-.38.08-.54s.15-.23.31-.31c.15-.08.31-.08.54-.08s.38,0,.54.08c.08,0,.23.08.23.15.08.08.08.15.15.23,0,.08.08.31.08.62,0,.23,0,.38-.08.54,0,.08-.08.15-.15.23-.08.08-.15.08-.23.15-.08.08-.31.08-.62.08h-.38c-.08,0-.23-.08-.31-.15s-.15-.15-.15-.31v-.69Zm0,6.54v-4.07c0-.31,0-.46.08-.54,0-.08.08-.15.15-.23.08-.08.15-.15.31-.15.08-.08.23-.08.46-.08.15,0,.31,0,.38.08.08,0,.23.08.31.15s.15.15.23.31c.08.08.08.23.08.38v4.38c0,.08,0,.23-.08.38s-.08.23-.15.31-.15.08-.31.15c-.15,0-.31.08-.38.08h-.38c-.15,0-.31-.08-.38-.15-.08-.08-.15-.23-.15-.31-.08-.31-.15-.46-.15-.69Zm9.15-2.61v2.92c0,.15-.08.31-.23.46-.15.15-.38.23-.77.23-.31,0-.54-.08-.62-.23s-.15-.23-.15-.38v-2.54c0-.38,0-.62-.08-.77,0-.15-.08-.23-.15-.31s-.15-.15-.31-.23-.31-.15-.46-.15h-.38c-.15,0-.23,0-.38.08-.08,0-.23.08-.31.15l-.31.31c-.08.15-.15.31-.15.69v2.92c0,.08-.08.15-.23.31s-.38.23-.77.15c-.31,0-.54-.08-.62-.15-.08-.08-.15-.23-.15-.31s-.08-.38-.08-.77v-4.46c0-.08.08-.15.15-.23.08-.08.23-.15.31-.15h.31c.15,0,.38.08.54.15.15.08.31.15.31.15,0,0,.23-.08.54-.15.31-.15.62-.15.92-.23h.69c.15,0,.31.08.46.08s.38.08.62.23c.31.08.54.31.69.54s.31.46.38.62.08.31.08.46c.15.08.15.31.15.62Z"/>
        <path class="cls-5" d="m57.26,36.6v-6.3c0-.15,0-.31.08-.46,0-.15.08-.23.15-.31.08-.08.23-.15.46-.23.23-.08.46-.08.85,0,.23.08.38.15.46.23s.15.15.23.31c0,.08.08.23.08.38v6.46c0,.23,0,.38-.08.54s-.15.23-.31.31c-.15.08-.38.15-.69.15s-.54-.08-.69-.15c-.15-.08-.23-.23-.31-.38-.23-.15-.23-.31-.23-.54Zm14.3-4.07l-1,3.77c0,.08-.08.23-.15.46s-.15.38-.23.54c-.08.15-.15.23-.23.31-.08.08-.23.15-.38.15h-.85c-.08,0-.15-.08-.23-.15-.08-.08-.15-.15-.23-.23-.08-.08-.08-.23-.15-.31l-.31-1c-.08-.15-.08-.23-.15-.23s-.08.08-.15.23l-.15.77c-.08.23-.15.46-.15.54-.08.08-.15.23-.23.31-.15.08-.38.15-.77.15h-.38c-.15,0-.31-.08-.38-.15-.08-.08-.15-.15-.23-.31-.08-.15-.15-.46-.31-.92l-1.23-4v-.15c0-.08.08-.23.15-.31.08-.08.15-.15.31-.15.15-.08.31-.08.54-.08.31,0,.46,0,.62.15.15.08.31.38.38.85l.38,1.38c.08.23.08.38.15.38h.15s.08-.15.08-.31l.38-1.54c.08-.31.08-.46.15-.54,0-.08.08-.15.23-.23.08-.08.31-.15.62-.15s.54.08.62.15c.15.15.23.31.31.62l.38,1.61c0,.08,0,.15.08.23,0,.08.08.15.08.15h.08s.08-.15.15-.46l.38-1.69c.08-.31.15-.46.31-.62.15-.08.38-.15.69-.15.38,0,.62.08.77.23.08.15.15.23.15.38-.15,0-.15.15-.23.31Zm2.92,5.23c-.77,0-1.31-.15-1.69-.46-.31-.31-.46-.69-.46-1.15s.15-.85.38-1.15c.15-.15.31-.31.46-.46.23-.15.46-.31.77-.46.31-.15.62-.23.77-.31l1.31-.31c.08-.08.15-.08.15-.08,0,0,0-.08-.08-.15-.08-.08-.15-.08-.31-.08-.31,0-.62,0-.92.15-.31.15-.46.23-.54.23l-.31.23c-.15.08-.31.15-.54.15s-.46-.08-.62-.31c-.15-.23-.31-.38-.31-.62s.08-.38.31-.69c.31-.31.69-.54,1.08-.62s.69-.15.85-.15.38,0,.46-.08h.62c.23,0,.38.08.62.08.23.08.38.08.46.15.08,0,.23.08.31.15.15.08.31.23.46.38s.31.54.31,1.08v2.69c0,.23.08.38.08.46s.08.23.08.38c.08.15.08.23.08.31,0,.15-.08.23-.15.31-.08.08-.23.15-.38.23-.23.08-.38.08-.54.08-.23,0-.46-.08-.62-.23-.15-.15-.31-.23-.38-.23,0,0-.08,0-.23.08-.08.08-.23.08-.38.15-.15.08-.31.08-.46.08s-.31.08-.46.08c-.08.08-.15.08-.15.08Zm-.15-1.92c0,.08.08.23.15.31.08.08.23.15.46.15.23.08.54-.08,1-.31.08-.08.15-.08.23-.15,0-.08.08-.08.08-.15s0-.08.08-.15v-.23c0-.31-.08-.38-.08-.46,0,0-.08,0-.15-.08h-.15c-.08,0-.31.08-.62.15-.31.08-.54.23-.69.38-.23.31-.31.46-.31.54Zm10.84-1.77v2.92c0,.15-.08.31-.23.46-.15.15-.38.23-.77.23-.31,0-.54-.08-.62-.23s-.15-.23-.15-.38v-2.54c0-.38,0-.62-.08-.77,0-.15-.08-.23-.15-.31s-.15-.15-.31-.23-.31-.15-.46-.15h-.38c-.15,0-.23,0-.38.08-.08,0-.23.08-.31.15l-.31.31c-.08.15-.15.31-.15.69v2.92c0,.08-.08.15-.23.31s-.38.23-.77.15c-.31,0-.54-.08-.62-.15s-.15-.23-.15-.31-.08-.38-.08-.77v-4.46c0-.08.08-.15.15-.23.08-.08.23-.15.31-.15h.31c.15,0,.38.08.54.15.15.08.31.15.31.15,0,0,.23-.08.54-.15.31-.15.62-.15.92-.23h.69c.15,0,.31.08.46.08s.38.08.62.23c.31.08.54.31.69.54s.31.46.38.62.08.31.08.46c.15.08.15.31.15.62Zm3.69-.69v2.31c0,.08.08.08.15.15.08,0,.15.08.23.08h.46c.15,0,.31,0,.38.08l.23.23c.08.08.08.23.08.46s0,.46-.08.62c-.08.08-.08.15-.15.23-.08.08-.15.08-.38.15-.15,0-.38.08-.69.08h-.77c-.23,0-.46,0-.62-.08s-.31-.15-.38-.23-.23-.23-.23-.31c-.08-.15-.08-.23-.08-.38v-3.23c0-.08,0-.15-.08-.23s-.15-.08-.23-.08h-.46c-.08,0-.15,0-.23-.08-.08,0-.08-.08-.15-.15s-.08-.23-.08-.38v-.46c0-.15.08-.31.15-.38.08-.08.23-.15.38-.15h.31q.15,0,.23-.08s.08-.08.08-.15v-.92c0-.23.08-.38.15-.54.15-.15.38-.23.69-.23.38,0,.62.08.77.23s.23.31.23.54v.92c0,.08.08.08.15.15s.15.08.23.08h.46c.31,0,.54,0,.62.08s.15.23.15.38.08.31,0,.46c0,.23-.08.46-.15.54s-.15.08-.23.15h-1c-.08,0-.15,0-.23.08.15,0,.08,0,.08.08Zm8,4.38c-.77,0-1.31-.15-1.69-.46-.31-.31-.46-.69-.46-1.15s.15-.85.38-1.15l.46-.46c.23-.15.46-.31.77-.46.31-.15.62-.23.77-.31l1.31-.31c.08-.08.15-.08.15-.08,0,0,0-.08-.08-.15-.08-.08-.15-.08-.31-.08-.31,0-.62,0-.92.15s-.46.23-.54.23l-.31.23c-.15.08-.31.15-.54.15s-.46-.08-.62-.31c-.15-.23-.31-.38-.31-.62s.08-.38.31-.69c.31-.31.69-.54,1.08-.62s.69-.15.85-.15.38,0,.46-.08h.62c.23,0,.38.08.62.08.23.08.38.08.46.15.08,0,.23.08.31.15.15.08.31.23.46.38.15.15.31.54.31,1.08v2.69c0,.23.08.38.08.46s.08.23.08.38c.08.15.08.23.08.31,0,.15-.08.23-.15.31s-.23.15-.38.23c-.23.08-.38.08-.54.08-.23,0-.46-.08-.62-.23s-.31-.23-.38-.23c0,0-.08,0-.23.08-.08.08-.23.08-.38.15-.15.08-.31.08-.46.08s-.31.08-.46.08c0,.08-.08.08-.15.08Zm-.08-1.92c0,.08.08.23.15.31s.23.15.46.15c.23.08.54-.08,1-.31.08-.08.15-.08.23-.15,0-.08.08-.08.08-.15s0-.08.08-.15v-.23c0-.31-.08-.38-.08-.46,0,0-.08,0-.15-.08h-.15c-.08,0-.31.08-.62.15-.31.08-.54.23-.69.38-.23.31-.31.46-.31.54Zm8.07,1v-6.38c0-.38.08-.62.23-.77s.31-.23.38-.23c.15,0,.38-.08.77-.08h3.92c.23,0,.46,0,.69.08.23.08.46.15.62.23s.31.23.46.46c.15.23.31.46.38.77s.08.62.08,1c0,.31-.08.69-.15.92-.08.31-.15.54-.31.69s-.23.31-.31.38c-.08.08-.15.15-.31.23s-.15.15-.15.15c0,0,0,.08.08.08l.31.54.69,1.15c.15.23.23.46.23.62s-.08.31-.23.46c-.15.15-.31.23-.54.31-.23.08-.46.08-.62.08s-.31,0-.38-.08l-.23-.23c-.08-.08-.23-.38-.46-.85l-.69-1.38c-.15-.31-.31-.54-.31-.54l-.08-.08h-1.38c-.15,0-.23,0-.23.08-.08.08-.08.15-.08.38v1.69c0,.31,0,.54-.08.62,0,.08-.08.15-.15.23-.08.08-.23.15-.31.15-.15,0-.31.08-.46.08-.23,0-.38,0-.54-.08s-.23-.08-.31-.15-.15-.15-.23-.31c-.31.08-.31-.08-.31-.23Zm2.69-4.15h1.77c.23,0,.38,0,.54-.08s.23-.08.31-.15.08-.15.15-.23c.08-.08.08-.23.08-.38s-.08-.31-.23-.46c-.15-.15-.31-.15-.54-.15h-2.31c-.08,0-.15,0-.23.08s-.08.15-.08.31v.69c0,.15,0,.23.08.31.08,0,.23.08.46.08Zm5.38,1v-.38c0-.15,0-.38.08-.62s.08-.46.15-.69c.08-.23.15-.46.31-.69.15-.23.23-.46.38-.62s.31-.38.46-.46c.15-.15.31-.23.38-.31.15-.08.23-.15.31-.15.08-.08.23-.08.38-.15.15-.08.38-.15.69-.15.31-.08.62-.08.92-.08h.54c.23,0,.46,0,.69.08.23.08.46.08.62.15.15.08.31.15.46.23.15.08.31.15.38.23.15.08.23.23.38.31.08.08.23.23.46.54.15.23.31.54.46.85.15.31.23.62.31.92.08.31.08.54.08.77v.54c0,.31-.08.54-.08.85-.08.31-.15.54-.23.77s-.15.46-.31.62c-.08.15-.23.31-.38.46-.15.15-.23.31-.38.38-.15.15-.31.23-.46.31-.15.08-.31.15-.54.31-.23.08-.38.15-.62.23s-.38.08-.62.08-.46.08-.77,0h-.54c-.31,0-.54-.08-.77-.08-.23-.08-.46-.15-.77-.23-.31-.15-.54-.23-.69-.38s-.31-.23-.46-.38c-.15-.15-.23-.31-.31-.38-.08-.08-.23-.31-.31-.54-.15-.23-.23-.46-.23-.62-.08-.15-.08-.31-.08-.54,0-.15-.08-.38-.08-.54.15-.38.15-.54.15-.62Zm2.31-.15v.46c0,.23.08.54.23.77.15.31.38.54.62.69.31.15.62.31,1.08.31.62,0,1.08-.15,1.38-.54.31-.31.54-.69.54-1,.08-.31.08-.62.08-.77,0-.38-.08-.69-.15-.92-.08-.31-.23-.54-.46-.77s-.46-.38-.69-.46c-.23-.08-.46-.08-.62-.08s-.38,0-.62.08-.46.15-.69.38c-.23.23-.38.46-.46.69-.15.38-.23.69-.23,1.15Zm13.15,3.15v-2.61c0-.08,0-.15-.08-.15,0,0-.08,0-.08.08,0,0-.08.15-.08.31l-.92,2.84c-.08.23-.15.38-.31.46s-.31.15-.62.08h-.31c-.08,0-.23-.08-.31-.15s-.15-.23-.31-.54l-.23-.62-.77-2.31-.08-.23s0-.08-.08-.08h-.15v3.08c0,.23,0,.38-.08.46,0,.08-.08.15-.15.23-.08.08-.15.08-.31.15-.15,0-.31.08-.46.08s-.31,0-.46-.08c-.15,0-.31-.08-.46-.23-.15-.15-.23-.38-.23-.69v-6.38c0-.38.08-.62.23-.77s.31-.23.46-.23c.23,0,.38-.08.54-.08.23,0,.46.08.62.15s.31.15.38.31.15.23.23.38l1.38,3.69c.08.15.15.31.15.31h.15s.08-.08.08-.15l.08-.31,1.38-3.69c.08-.23.23-.38.38-.54s.46-.15.85-.15c.23,0,.46,0,.54.08.15.08.23.15.38.23s.15.31.15.69v6.46c0,.23,0,.38-.08.54,0,.15-.08.23-.15.31s-.15.15-.31.15-.31.08-.62.08-.54-.08-.69-.23c-.08-.08-.08-.15-.15-.23.46-.15.46-.38.46-.69Zm6.3-6.54c0-.23,0-.38.08-.54s.15-.23.31-.31c.15-.08.31-.08.54-.08s.38,0,.54.08c.08,0,.23.08.23.15.08.08.08.15.15.23,0,.08.08.31.08.62,0,.23,0,.38-.08.54,0,.08-.08.15-.15.23-.08.08-.15.08-.23.15-.08.08-.31.08-.62.08h-.38c-.08,0-.23-.08-.31-.15s-.15-.15-.15-.31v-.69Zm0,6.54v-4.07c0-.31,0-.46.08-.54,0-.08.08-.15.15-.23.08-.08.15-.15.31-.15.08-.08.23-.08.46-.08.15,0,.31,0,.38.08.08,0,.23.08.31.15s.15.15.23.31c.08.08.08.23.08.38v4.38c0,.08,0,.23-.08.38s-.08.23-.15.31-.15.08-.31.15c-.15,0-.31.08-.38.08h-.38c-.15,0-.31-.08-.38-.15-.08-.08-.15-.23-.15-.31-.08-.31-.15-.46-.15-.69Zm9.15-2.61v2.92c0,.15-.08.31-.23.46-.15.15-.38.23-.77.23-.31,0-.54-.08-.62-.23s-.15-.23-.15-.38v-2.54c0-.38,0-.62-.08-.77,0-.15-.08-.23-.15-.31s-.15-.15-.31-.23-.31-.15-.46-.15h-.38c-.15,0-.23,0-.38.08-.08,0-.23.08-.31.15l-.31.31c-.08.15-.15.31-.15.69v2.92c0,.08-.08.15-.23.31s-.38.23-.77.15c-.31,0-.54-.08-.62-.15-.08-.08-.15-.23-.15-.31s-.08-.38-.08-.77v-4.46c0-.08.08-.15.15-.23.08-.08.23-.15.31-.15h.31c.15,0,.38.08.54.15.15.08.31.15.31.15,0,0,.23-.08.54-.15.31-.15.62-.15.92-.23h.69c.15,0,.31.08.46.08s.38.08.62.23c.31.08.54.31.69.54s.31.46.38.62.08.31.08.46c.15.08.15.31.15.62Z"/>
      </g>
      <g>
        <path class="cls-26" d="m56.11,35.52v-6.3c0-.15,0-.31.08-.46,0-.15.08-.23.15-.31.08-.08.23-.15.46-.23.23-.08.46-.08.85,0,.23.08.38.15.46.23s.15.15.23.31c0,.08.08.23.08.38v6.46c0,.23,0,.38-.08.54s-.15.23-.31.31c-.15.08-.38.15-.69.15s-.54-.08-.69-.15c-.15-.08-.23-.23-.31-.38-.15-.15-.23-.31-.23-.54Zm14.38-4.07l-1,3.77c0,.08-.08.23-.15.46s-.15.38-.23.54c-.08.15-.15.23-.23.31-.08.08-.23.15-.38.15h-.85c-.08,0-.15-.08-.23-.15-.08-.08-.15-.15-.23-.23-.08-.08-.08-.23-.15-.31l-.31-1c-.08-.15-.08-.23-.15-.23s-.08.08-.15.23l-.15.77c-.08.23-.15.46-.15.54-.08.08-.15.23-.23.31-.15.08-.38.15-.77.15h-.38c-.15,0-.31-.08-.38-.15-.08-.08-.15-.15-.23-.31-.08-.15-.15-.46-.31-.92l-1.23-4v-.15c0-.08.08-.23.15-.31.08-.08.15-.15.31-.15.15-.08.31-.08.54-.08.31,0,.46,0,.62.15.15.08.31.38.38.85l.38,1.38c.08.23.08.38.15.38h.15s.08-.15.08-.31l.38-1.54c.08-.31.08-.46.15-.54,0-.08.08-.15.23-.23.08-.08.31-.15.62-.15s.54.08.62.15c.15.15.23.31.31.62l.38,1.61c0,.08,0,.15.08.23,0,.08.08.15.08.15h.08s.08-.15.15-.46l.38-1.69c.08-.31.15-.46.31-.62.15-.08.38-.15.69-.15.38,0,.62.08.77.23.08.15.15.23.15.38-.15,0-.15.15-.23.31Zm2.84,5.23c-.77,0-1.31-.15-1.69-.46-.31-.31-.46-.69-.46-1.15s.15-.85.38-1.15c.15-.15.31-.31.46-.46.23-.15.46-.31.77-.46.31-.15.62-.23.77-.31l1.31-.31c.08-.08.15-.08.15-.08,0,0,0-.08-.08-.15-.08-.08-.15-.08-.31-.08-.31,0-.62,0-.92.15-.31.15-.46.23-.54.23l-.31.23c-.15.08-.31.15-.54.15s-.46-.08-.62-.31c-.15-.23-.31-.38-.31-.62s.08-.38.31-.69c.31-.31.69-.54,1.08-.62s.69-.15.85-.15.38,0,.46-.08h.62c.23,0,.38.08.62.08.23.08.38.08.46.15.08,0,.23.08.31.15.15.08.31.23.46.38s.31.54.31,1.08v2.69c0,.23.08.38.08.46s.08.23.08.38c.08.15.08.23.08.31,0,.15-.08.23-.15.31-.08.08-.23.15-.38.23-.23.08-.38.08-.54.08-.23,0-.46-.08-.62-.23-.15-.15-.31-.23-.38-.23,0,0-.08,0-.23.08-.08.08-.23.08-.38.15-.15.08-.31.08-.46.08s-.31.08-.46.08c0,.08-.08.08-.15.08Zm-.08-1.92c0,.08.08.23.15.31.08.08.23.15.46.15.23.08.54-.08,1-.31.08-.08.15-.08.23-.15,0-.08.08-.08.08-.15s0-.08.08-.15v-.23c0-.31-.08-.38-.08-.46,0,0-.08,0-.15-.08h-.15c-.08,0-.31.08-.62.15-.31.08-.54.23-.69.38-.23.31-.31.46-.31.54Zm10.84-1.85v2.92c0,.15-.08.31-.23.46-.15.15-.38.23-.77.23-.31,0-.54-.08-.62-.23s-.15-.23-.15-.38v-2.54c0-.38,0-.62-.08-.77,0-.15-.08-.23-.15-.31s-.15-.15-.31-.23-.31-.15-.46-.15h-.38c-.15,0-.23,0-.38.08-.08,0-.23.08-.31.15l-.31.31c-.08.15-.15.31-.15.69v2.92c0,.08-.08.15-.23.31s-.38.23-.77.15c-.31,0-.54-.08-.62-.15-.08-.08-.15-.23-.15-.31s-.08-.38-.08-.77v-4.46c0-.08.08-.15.15-.23s.23-.15.31-.15h.31c.15,0,.38.08.54.15.15.08.31.15.31.15,0,0,.23-.08.54-.15.31-.15.62-.15.92-.23h.69c.15,0,.31.08.46.08s.38.08.62.23c.31.08.54.31.69.54s.31.46.38.62.08.31.08.46c.15.15.15.31.15.62Zm3.69-.62v2.31c0,.08.08.08.15.15.08,0,.15.08.23.08h.46c.15,0,.31,0,.38.08l.23.23c.08.08.08.23.08.46s0,.46-.08.62c-.08.08-.08.15-.15.23-.08.08-.15.08-.38.15-.15,0-.38.08-.69.08h-.77c-.23,0-.46,0-.62-.08s-.31-.15-.38-.23-.23-.23-.23-.31c-.08-.15-.08-.23-.08-.38v-3.23c0-.08,0-.15-.08-.23s-.15-.08-.23-.08h-.46c-.08,0-.15,0-.23-.08-.08,0-.08-.08-.15-.15s-.08-.23-.08-.38v-.46c0-.15.08-.31.15-.38.08-.08.23-.15.38-.15h.31q.15,0,.23-.08s.08-.08.08-.15v-.92c0-.23.08-.38.15-.54.15-.15.38-.23.69-.23.38,0,.62.08.77.23s.23.31.23.54v.92c0,.08.08.08.15.15s.15.08.23.08h.46c.31,0,.54,0,.62.08s.15.23.15.38.08.31,0,.46c0,.23-.08.46-.15.54s-.15.08-.23.15h-1c-.08,0-.15,0-.23.08.08-.08.08,0,.08.08Zm8,4.38c-.77,0-1.31-.15-1.69-.46-.31-.31-.46-.69-.46-1.15s.15-.85.38-1.15l.46-.46c.23-.15.46-.31.77-.46.31-.15.62-.23.77-.31l1.31-.31c.08-.08.15-.08.15-.08,0,0,0-.08-.08-.15-.08-.08-.15-.08-.31-.08-.31,0-.62,0-.92.15s-.46.23-.54.23l-.31.23c-.15.08-.31.15-.54.15s-.46-.08-.62-.31c-.15-.23-.31-.38-.31-.62s.08-.38.31-.69c.31-.31.69-.54,1.08-.62s.69-.15.85-.15.38,0,.46-.08h.62c.23,0,.38.08.62.08.23.08.38.08.46.15.08,0,.23.08.31.15.15.08.31.23.46.38.15.15.31.54.31,1.08v2.69c0,.23.08.38.08.46s.08.23.08.38c.08.15.08.23.08.31,0,.15-.08.23-.15.31s-.23.15-.38.23c-.23.08-.38.08-.54.08-.23,0-.46-.08-.62-.23s-.31-.23-.38-.23c0,0-.08,0-.23.08-.08.08-.23.08-.38.15-.15.08-.31.08-.46.08s-.31.08-.46.08c0,.08-.08.08-.15.08Zm-.08-1.92c0,.08.08.23.15.31s.23.15.46.15c.23.08.54-.08,1-.31.08-.08.15-.08.23-.15,0-.08.08-.08.08-.15s0-.08.08-.15v-.23c0-.31-.08-.38-.08-.46,0,0-.08,0-.15-.08h-.15c-.08,0-.31.08-.62.15-.31.08-.54.23-.69.38-.31.31-.31.46-.31.54Zm8.07,1v-6.38c0-.38.08-.62.23-.77s.31-.23.38-.23c.15,0,.38-.08.77-.08h3.92c.23,0,.46,0,.69.08.23.08.46.15.62.23s.31.23.46.46c.15.23.31.46.38.77s.08.62.08,1c0,.31-.08.69-.15.92-.08.31-.15.54-.31.69s-.23.31-.31.38c-.08.08-.15.15-.31.23s-.15.15-.15.15c0,0,0,.08.08.08l.31.54.69,1.15c.15.23.23.46.23.62s-.08.31-.23.46c-.15.15-.31.23-.54.31-.23.08-.46.08-.62.08s-.31,0-.38-.08l-.23-.23c-.08-.08-.23-.38-.46-.85l-.69-1.38c-.15-.31-.31-.54-.31-.54l-.08-.08h-1.38c-.15,0-.23,0-.23.08-.08.08-.08.15-.08.38v1.69c0,.31,0,.54-.08.62s-.08.15-.15.23c-.08.08-.23.15-.31.15-.15,0-.31.08-.46.08-.23,0-.38,0-.54-.08s-.23-.08-.31-.15-.15-.15-.23-.31c-.31.08-.31-.08-.31-.23Zm2.69-4.15h1.77c.23,0,.38,0,.54-.08s.23-.08.31-.15.08-.15.15-.23c.08-.08.08-.23.08-.38s-.08-.31-.23-.46c-.15-.15-.31-.15-.54-.15h-2.31c-.08,0-.15,0-.23.08s-.08.15-.08.31v.69c0,.15,0,.23.08.31.08,0,.23.08.46.08Zm5.38.92v-.38c0-.15,0-.38.08-.62s.08-.46.15-.69c.08-.23.15-.46.31-.69.15-.23.23-.46.38-.62s.31-.38.46-.46c.15-.15.31-.23.38-.31.15-.08.23-.15.31-.15.08-.08.23-.08.38-.15.15-.08.38-.15.69-.15.31-.08.62-.08.92-.08h.54c.23,0,.46,0,.69.08.23.08.46.08.62.15.15.08.31.15.46.23.15.08.31.15.38.23.15.08.23.23.38.31.08.08.23.23.46.54.15.23.31.54.46.85.15.31.23.62.31.92.08.31.08.54.08.77v.54c0,.31-.08.54-.08.85-.08.31-.15.54-.23.77s-.15.46-.31.62c-.08.15-.23.31-.38.46-.15.15-.23.31-.38.38-.15.15-.31.23-.46.31-.15.08-.31.15-.54.31-.23.08-.38.15-.62.23s-.38.08-.62.08-.46.08-.77,0h-.54c-.31,0-.54-.08-.77-.08-.23-.08-.46-.15-.77-.23-.31-.15-.54-.23-.69-.38s-.31-.23-.46-.38c-.15-.15-.23-.31-.31-.38-.08-.08-.23-.31-.31-.54-.15-.23-.23-.46-.23-.62-.08-.15-.08-.31-.08-.54,0-.15-.08-.38-.08-.54.15-.31.15-.46.15-.62Zm2.31-.08v.46c0,.23.08.54.23.77.15.31.38.54.62.69.31.15.62.31,1.08.31.62,0,1.08-.15,1.38-.54.31-.31.54-.69.54-1,.08-.31.08-.62.08-.77,0-.38-.08-.69-.15-.92-.08-.31-.23-.54-.46-.77s-.46-.38-.69-.46c-.23-.08-.46-.08-.62-.08s-.38,0-.62.08-.46.15-.69.38c-.23.23-.38.46-.46.69-.15.38-.23.69-.23,1.15Zm13.15,3.15v-2.61c0-.08,0-.15-.08-.15,0,0-.08,0-.08.08,0,0-.08.15-.08.31l-.92,2.84c-.08.23-.15.38-.31.46s-.31.15-.62.08h-.31c-.08,0-.23-.08-.31-.15s-.15-.23-.31-.54l-.23-.62-.77-2.31-.08-.23s0-.08-.08-.08h-.15v3.08c0,.23,0,.38-.08.46,0,.08-.08.15-.15.23-.08.08-.15.08-.31.15-.15,0-.31.08-.46.08s-.31,0-.46-.08c-.15,0-.31-.08-.46-.23-.15-.15-.23-.38-.23-.69v-6.46c0-.38.08-.62.23-.77s.31-.23.46-.23c.23,0,.38-.08.54-.08.23,0,.46.08.62.15s.31.15.38.31.15.23.23.38l1.38,3.69c.08.15.15.31.15.31h.15s.08-.08.08-.15l.08-.31,1.38-3.69c.08-.23.23-.38.38-.54s.46-.15.85-.15c.23,0,.46,0,.54.08.15.08.23.15.38.23s.15.31.15.69v6.46c0,.23,0,.38-.08.54,0,.15-.08.23-.15.31s-.15.15-.31.15-.31.08-.62.08-.54-.08-.69-.23c-.08-.08-.08-.15-.15-.23.46-.08.46-.31.46-.62Zm6.3-6.54c0-.23,0-.38.08-.54s.15-.23.31-.31c.15-.08.31-.08.54-.08s.38,0,.54.08c.08,0,.23.08.23.15.08.08.08.15.15.23,0,.08.08.31.08.62,0,.23,0,.38-.08.54,0,.08-.08.15-.15.23-.08.08-.15.08-.23.15-.08.08-.31.08-.62.08h-.38c-.08,0-.23-.08-.31-.15s-.15-.15-.15-.31v-.69Zm0,6.54v-4.07c0-.31,0-.46.08-.54,0-.08.08-.15.15-.23.08-.08.15-.15.31-.15.08-.08.23-.08.46-.08.15,0,.31,0,.38.08.08,0,.23.08.31.15s.15.15.23.31c.08.08.08.23.08.38v4.38c0,.08,0,.23-.08.38s-.08.23-.15.31-.15.08-.31.15c-.15,0-.31.08-.38.08h-.38c-.15,0-.31-.08-.38-.15-.08-.08-.15-.23-.15-.31-.08-.31-.15-.46-.15-.69Zm9.15-2.69v2.92c0,.15-.08.31-.23.46-.15.15-.38.23-.77.23-.31,0-.54-.08-.62-.23s-.15-.23-.15-.38v-2.54c0-.38,0-.62-.08-.77,0-.15-.08-.23-.15-.31s-.15-.15-.31-.23-.31-.15-.46-.15h-.38c-.15,0-.23,0-.38.08-.08,0-.23.08-.31.15l-.31.31c-.08.15-.15.31-.15.69v2.92c0,.08-.08.15-.23.31s-.38.23-.77.15c-.31,0-.54-.08-.62-.15-.08-.08-.15-.23-.15-.31s-.08-.38-.08-.77v-4.46c0-.08.08-.15.15-.23.08-.08.23-.15.31-.15h.31c.15,0,.38.08.54.15.15.08.31.15.31.15,0,0,.23-.08.54-.15.31-.15.62-.15.92-.23h.69c.15,0,.31.08.46.08s.38.08.62.23c.31.08.54.31.69.54s.31.46.38.62.08.31.08.46c.15.15.15.31.15.62Z"/>
        <path class="cls-5" d="m56.11,35.52v-6.3c0-.15,0-.31.08-.46,0-.15.08-.23.15-.31.08-.08.23-.15.46-.23.23-.08.46-.08.85,0,.23.08.38.15.46.23s.15.15.23.31c0,.08.08.23.08.38v6.46c0,.23,0,.38-.08.54s-.15.23-.31.31c-.15.08-.38.15-.69.15s-.54-.08-.69-.15c-.15-.08-.23-.23-.31-.38-.15-.15-.23-.31-.23-.54Zm14.38-4.07l-1,3.77c0,.08-.08.23-.15.46s-.15.38-.23.54c-.08.15-.15.23-.23.31-.08.08-.23.15-.38.15h-.85c-.08,0-.15-.08-.23-.15-.08-.08-.15-.15-.23-.23-.08-.08-.08-.23-.15-.31l-.31-1c-.08-.15-.08-.23-.15-.23s-.08.08-.15.23l-.15.77c-.08.23-.15.46-.15.54-.08.08-.15.23-.23.31-.15.08-.38.15-.77.15h-.38c-.15,0-.31-.08-.38-.15-.08-.08-.15-.15-.23-.31-.08-.15-.15-.46-.31-.92l-1.23-4v-.15c0-.08.08-.23.15-.31.08-.08.15-.15.31-.15.15-.08.31-.08.54-.08.31,0,.46,0,.62.15.15.08.31.38.38.85l.38,1.38c.08.23.08.38.15.38h.15s.08-.15.08-.31l.38-1.54c.08-.31.08-.46.15-.54,0-.08.08-.15.23-.23.08-.08.31-.15.62-.15s.54.08.62.15c.15.15.23.31.31.62l.38,1.61c0,.08,0,.15.08.23,0,.08.08.15.08.15h.08s.08-.15.15-.46l.38-1.69c.08-.31.15-.46.31-.62.15-.08.38-.15.69-.15.38,0,.62.08.77.23.08.15.15.23.15.38-.15,0-.15.15-.23.31Zm2.84,5.23c-.77,0-1.31-.15-1.69-.46-.31-.31-.46-.69-.46-1.15s.15-.85.38-1.15c.15-.15.31-.31.46-.46.23-.15.46-.31.77-.46.31-.15.62-.23.77-.31l1.31-.31c.08-.08.15-.08.15-.08,0,0,0-.08-.08-.15-.08-.08-.15-.08-.31-.08-.31,0-.62,0-.92.15-.31.15-.46.23-.54.23l-.31.23c-.15.08-.31.15-.54.15s-.46-.08-.62-.31c-.15-.23-.31-.38-.31-.62s.08-.38.31-.69c.31-.31.69-.54,1.08-.62s.69-.15.85-.15.38,0,.46-.08h.62c.23,0,.38.08.62.08.23.08.38.08.46.15.08,0,.23.08.31.15.15.08.31.23.46.38s.31.54.31,1.08v2.69c0,.23.08.38.08.46s.08.23.08.38c.08.15.08.23.08.31,0,.15-.08.23-.15.31-.08.08-.23.15-.38.23-.23.08-.38.08-.54.08-.23,0-.46-.08-.62-.23-.15-.15-.31-.23-.38-.23,0,0-.08,0-.23.08-.08.08-.23.08-.38.15-.15.08-.31.08-.46.08s-.31.08-.46.08c0,.08-.08.08-.15.08Zm-.08-1.92c0,.08.08.23.15.31.08.08.23.15.46.15.23.08.54-.08,1-.31.08-.08.15-.08.23-.15,0-.08.08-.08.08-.15s0-.08.08-.15v-.23c0-.31-.08-.38-.08-.46,0,0-.08,0-.15-.08h-.15c-.08,0-.31.08-.62.15-.31.08-.54.23-.69.38-.23.31-.31.46-.31.54Zm10.84-1.85v2.92c0,.15-.08.31-.23.46-.15.15-.38.23-.77.23-.31,0-.54-.08-.62-.23s-.15-.23-.15-.38v-2.54c0-.38,0-.62-.08-.77,0-.15-.08-.23-.15-.31s-.15-.15-.31-.23-.31-.15-.46-.15h-.38c-.15,0-.23,0-.38.08-.08,0-.23.08-.31.15l-.31.31c-.08.15-.15.31-.15.69v2.92c0,.08-.08.15-.23.31s-.38.23-.77.15c-.31,0-.54-.08-.62-.15-.08-.08-.15-.23-.15-.31s-.08-.38-.08-.77v-4.46c0-.08.08-.15.15-.23s.23-.15.31-.15h.31c.15,0,.38.08.54.15.15.08.31.15.31.15,0,0,.23-.08.54-.15.31-.15.62-.15.92-.23h.69c.15,0,.31.08.46.08s.38.08.62.23c.31.08.54.31.69.54s.31.46.38.62.08.31.08.46c.15.15.15.31.15.62Zm3.69-.62v2.31c0,.08.08.08.15.15.08,0,.15.08.23.08h.46c.15,0,.31,0,.38.08l.23.23c.08.08.08.23.08.46s0,.46-.08.62c-.08.08-.08.15-.15.23-.08.08-.15.08-.38.15-.15,0-.38.08-.69.08h-.77c-.23,0-.46,0-.62-.08s-.31-.15-.38-.23-.23-.23-.23-.31c-.08-.15-.08-.23-.08-.38v-3.23c0-.08,0-.15-.08-.23s-.15-.08-.23-.08h-.46c-.08,0-.15,0-.23-.08-.08,0-.08-.08-.15-.15s-.08-.23-.08-.38v-.46c0-.15.08-.31.15-.38.08-.08.23-.15.38-.15h.31q.15,0,.23-.08s.08-.08.08-.15v-.92c0-.23.08-.38.15-.54.15-.15.38-.23.69-.23.38,0,.62.08.77.23s.23.31.23.54v.92c0,.08.08.08.15.15s.15.08.23.08h.46c.31,0,.54,0,.62.08s.15.23.15.38.08.31,0,.46c0,.23-.08.46-.15.54s-.15.08-.23.15h-1c-.08,0-.15,0-.23.08.08-.08.08,0,.08.08Zm8,4.38c-.77,0-1.31-.15-1.69-.46-.31-.31-.46-.69-.46-1.15s.15-.85.38-1.15l.46-.46c.23-.15.46-.31.77-.46.31-.15.62-.23.77-.31l1.31-.31c.08-.08.15-.08.15-.08,0,0,0-.08-.08-.15-.08-.08-.15-.08-.31-.08-.31,0-.62,0-.92.15s-.46.23-.54.23l-.31.23c-.15.08-.31.15-.54.15s-.46-.08-.62-.31c-.15-.23-.31-.38-.31-.62s.08-.38.31-.69c.31-.31.69-.54,1.08-.62s.69-.15.85-.15.38,0,.46-.08h.62c.23,0,.38.08.62.08.23.08.38.08.46.15.08,0,.23.08.31.15.15.08.31.23.46.38.15.15.31.54.31,1.08v2.69c0,.23.08.38.08.46s.08.23.08.38c.08.15.08.23.08.31,0,.15-.08.23-.15.31s-.23.15-.38.23c-.23.08-.38.08-.54.08-.23,0-.46-.08-.62-.23s-.31-.23-.38-.23c0,0-.08,0-.23.08-.08.08-.23.08-.38.15-.15.08-.31.08-.46.08s-.31.08-.46.08c0,.08-.08.08-.15.08Zm-.08-1.92c0,.08.08.23.15.31s.23.15.46.15c.23.08.54-.08,1-.31.08-.08.15-.08.23-.15,0-.08.08-.08.08-.15s0-.08.08-.15v-.23c0-.31-.08-.38-.08-.46,0,0-.08,0-.15-.08h-.15c-.08,0-.31.08-.62.15-.31.08-.54.23-.69.38-.31.31-.31.46-.31.54Zm8.07,1v-6.38c0-.38.08-.62.23-.77s.31-.23.38-.23c.15,0,.38-.08.77-.08h3.92c.23,0,.46,0,.69.08.23.08.46.15.62.23s.31.23.46.46c.15.23.31.46.38.77s.08.62.08,1c0,.31-.08.69-.15.92-.08.31-.15.54-.31.69s-.23.31-.31.38c-.08.08-.15.15-.31.23s-.15.15-.15.15c0,0,0,.08.08.08l.31.54.69,1.15c.15.23.23.46.23.62s-.08.31-.23.46c-.15.15-.31.23-.54.31-.23.08-.46.08-.62.08s-.31,0-.38-.08l-.23-.23c-.08-.08-.23-.38-.46-.85l-.69-1.38c-.15-.31-.31-.54-.31-.54l-.08-.08h-1.38c-.15,0-.23,0-.23.08-.08.08-.08.15-.08.38v1.69c0,.31,0,.54-.08.62s-.08.15-.15.23c-.08.08-.23.15-.31.15-.15,0-.31.08-.46.08-.23,0-.38,0-.54-.08s-.23-.08-.31-.15-.15-.15-.23-.31c-.31.08-.31-.08-.31-.23Zm2.69-4.15h1.77c.23,0,.38,0,.54-.08s.23-.08.31-.15.08-.15.15-.23c.08-.08.08-.23.08-.38s-.08-.31-.23-.46c-.15-.15-.31-.15-.54-.15h-2.31c-.08,0-.15,0-.23.08s-.08.15-.08.31v.69c0,.15,0,.23.08.31.08,0,.23.08.46.08Zm5.38.92v-.38c0-.15,0-.38.08-.62s.08-.46.15-.69c.08-.23.15-.46.31-.69.15-.23.23-.46.38-.62s.31-.38.46-.46c.15-.15.31-.23.38-.31.15-.08.23-.15.31-.15.08-.08.23-.08.38-.15.15-.08.38-.15.69-.15.31-.08.62-.08.92-.08h.54c.23,0,.46,0,.69.08.23.08.46.08.62.15.15.08.31.15.46.23.15.08.31.15.38.23.15.08.23.23.38.31.08.08.23.23.46.54.15.23.31.54.46.85.15.31.23.62.31.92.08.31.08.54.08.77v.54c0,.31-.08.54-.08.85-.08.31-.15.54-.23.77s-.15.46-.31.62c-.08.15-.23.31-.38.46-.15.15-.23.31-.38.38-.15.15-.31.23-.46.31-.15.08-.31.15-.54.31-.23.08-.38.15-.62.23s-.38.08-.62.08-.46.08-.77,0h-.54c-.31,0-.54-.08-.77-.08-.23-.08-.46-.15-.77-.23-.31-.15-.54-.23-.69-.38s-.31-.23-.46-.38c-.15-.15-.23-.31-.31-.38-.08-.08-.23-.31-.31-.54-.15-.23-.23-.46-.23-.62-.08-.15-.08-.31-.08-.54,0-.15-.08-.38-.08-.54.15-.31.15-.46.15-.62Zm2.31-.08v.46c0,.23.08.54.23.77.15.31.38.54.62.69.31.15.62.31,1.08.31.62,0,1.08-.15,1.38-.54.31-.31.54-.69.54-1,.08-.31.08-.62.08-.77,0-.38-.08-.69-.15-.92-.08-.31-.23-.54-.46-.77s-.46-.38-.69-.46c-.23-.08-.46-.08-.62-.08s-.38,0-.62.08-.46.15-.69.38c-.23.23-.38.46-.46.69-.15.38-.23.69-.23,1.15Zm13.15,3.15v-2.61c0-.08,0-.15-.08-.15,0,0-.08,0-.08.08,0,0-.08.15-.08.31l-.92,2.84c-.08.23-.15.38-.31.46s-.31.15-.62.08h-.31c-.08,0-.23-.08-.31-.15s-.15-.23-.31-.54l-.23-.62-.77-2.31-.08-.23s0-.08-.08-.08h-.15v3.08c0,.23,0,.38-.08.46,0,.08-.08.15-.15.23-.08.08-.15.08-.31.15-.15,0-.31.08-.46.08s-.31,0-.46-.08c-.15,0-.31-.08-.46-.23-.15-.15-.23-.38-.23-.69v-6.46c0-.38.08-.62.23-.77s.31-.23.46-.23c.23,0,.38-.08.54-.08.23,0,.46.08.62.15s.31.15.38.31.15.23.23.38l1.38,3.69c.08.15.15.31.15.31h.15s.08-.08.08-.15l.08-.31,1.38-3.69c.08-.23.23-.38.38-.54s.46-.15.85-.15c.23,0,.46,0,.54.08.15.08.23.15.38.23s.15.31.15.69v6.46c0,.23,0,.38-.08.54,0,.15-.08.23-.15.31s-.15.15-.31.15-.31.08-.62.08-.54-.08-.69-.23c-.08-.08-.08-.15-.15-.23.46-.08.46-.31.46-.62Zm6.3-6.54c0-.23,0-.38.08-.54s.15-.23.31-.31c.15-.08.31-.08.54-.08s.38,0,.54.08c.08,0,.23.08.23.15.08.08.08.15.15.23,0,.08.08.31.08.62,0,.23,0,.38-.08.54,0,.08-.08.15-.15.23-.08.08-.15.08-.23.15-.08.08-.31.08-.62.08h-.38c-.08,0-.23-.08-.31-.15s-.15-.15-.15-.31v-.69Zm0,6.54v-4.07c0-.31,0-.46.08-.54,0-.08.08-.15.15-.23.08-.08.15-.15.31-.15.08-.08.23-.08.46-.08.15,0,.31,0,.38.08.08,0,.23.08.31.15s.15.15.23.31c.08.08.08.23.08.38v4.38c0,.08,0,.23-.08.38s-.08.23-.15.31-.15.08-.31.15c-.15,0-.31.08-.38.08h-.38c-.15,0-.31-.08-.38-.15-.08-.08-.15-.23-.15-.31-.08-.31-.15-.46-.15-.69Zm9.15-2.69v2.92c0,.15-.08.31-.23.46-.15.15-.38.23-.77.23-.31,0-.54-.08-.62-.23s-.15-.23-.15-.38v-2.54c0-.38,0-.62-.08-.77,0-.15-.08-.23-.15-.31s-.15-.15-.31-.23-.31-.15-.46-.15h-.38c-.15,0-.23,0-.38.08-.08,0-.23.08-.31.15l-.31.31c-.08.15-.15.31-.15.69v2.92c0,.08-.08.15-.23.31s-.38.23-.77.15c-.31,0-.54-.08-.62-.15-.08-.08-.15-.23-.15-.31s-.08-.38-.08-.77v-4.46c0-.08.08-.15.15-.23.08-.08.23-.15.31-.15h.31c.15,0,.38.08.54.15.15.08.31.15.31.15,0,0,.23-.08.54-.15.31-.15.62-.15.92-.23h.69c.15,0,.31.08.46.08s.38.08.62.23c.31.08.54.31.69.54s.31.46.38.62.08.31.08.46c.15.15.15.31.15.62Z"/>
      </g>
    </g>
    <g>
      <path class="cls-11" d="m41.38,98.63h-25.2c-.87,0-1.55-.64-1.55-1.47v-21.21c0-.83.67-1.47,1.55-1.47h25.2c.87,0,1.55.64,1.55,1.47v21.27c-.07.77-.74,1.41-1.55,1.41Z"/>
      <g>
        <path d="m18.8,91.03c.06-.45.06-.51.57-.51.64,0,.77.13.89.32q.06.06.13.06c.19,0,.19-.19.19-.57,0-.26-.06-.26-.26-.26h-2.36c-.13,0-.26,0-.26.19,0,.13.26.19.26.32s-.06.26-.13.7l-.32,1.72c-.06.26-.13.38-.19.51-.13.06-.19.13-.19.19,0,.13.13.13.38.13h.89c.13,0,.32,0,.32-.19,0-.06-.06-.13-.13-.13-.06-.06-.13-.06-.13-.19s.06-.32.19-1.21h.64c.45,0,.45.19.57.19.06,0,.13-.06.19-.13.06-.13.13-.38.13-.51s-.06-.19-.13-.19c-.13,0-.19.19-.64.19h-.64v-.64h0Z"/>
        <path d="m20.78,93.01c-.06.32-.06.38-.26.51-.06.06-.13.06-.13.19s.13.13.38.13h2.3c.26,0,.32,0,.38-.13s.26-.51.26-.64c0-.06-.06-.13-.19-.13s-.19.13-.26.19c-.26.26-.38.32-.96.32-.51,0-.57-.06-.57-.19,0-.06,0-.13.06-.51l.26-1.79c0-.13.06-.32.13-.38s.26-.13.26-.26-.13-.13-.19-.13h-1.02c-.13,0-.26,0-.26.19,0,.13.26.13.26.26,0,.06,0,.19-.06.51l-.38,1.85h0Z"/>
        <path d="m25.57,93.9c1.28,0,2.3-.96,2.3-2.24,0-1.02-.83-1.66-1.79-1.66-1.47,0-2.3,1.09-2.3,2.24,0,1.09.77,1.66,1.79,1.66h0Zm0-.32c-.64,0-.89-.57-.89-1.15,0-.64.32-2.04,1.34-2.04.64,0,.83.57.83,1.09.06.77-.26,2.11-1.28,2.11h0Z"/>
        <path d="m30.05,93.9c1.28,0,2.3-.96,2.3-2.24,0-1.02-.83-1.66-1.79-1.66-1.47,0-2.3,1.09-2.3,2.24,0,1.09.77,1.66,1.79,1.66Zm0-.32c-.64,0-.89-.57-.89-1.15,0-.64.32-2.04,1.34-2.04.64,0,.83.57.83,1.09.06.77-.26,2.11-1.28,2.11h0Z"/>
        <path d="m32.92,93.01c-.06.38-.13.38-.26.51-.06.06-.13.06-.13.13,0,.13.19.13.26.13h.96c.13,0,.26-.06.26-.19s-.26-.19-.26-.32c0-.06,0-.19.13-.96,1.72,0,2.43-.83,2.43-1.47,0-.38-.26-.64-.57-.77-.26-.13-.64-.13-.89-.13h-1.47c-.13,0-.26,0-.26.19,0,.13.26.13.26.32,0,.06,0,.19-.06.45l-.38,2.11h0Zm1.28-2.11c0-.13.06-.26.06-.32.06-.13.26-.13.38-.13.38,0,.7.13.7.57,0,.38-.38,1.02-1.34,1.02l.19-1.15h0Z"/>
        <path d="m36.69,90.13c-.19,0-.26.06-.26.19,0,.19.19.13.32.38.19.57.51,1.15.89,1.72-.13.83-.13.96-.19,1.02-.06.13-.38.13-.38.32,0,.06.06.13.26.13h1.21c.13,0,.26-.06.26-.19,0-.19-.32-.13-.32-.32,0-.13,0-.32.13-1.02.89-.83,1.21-1.47,1.41-1.66.13-.19.38-.19.38-.38,0-.13-.13-.13-.26-.13h-.57c-.13,0-.32,0-.32.19,0,.13.19.13.19.26,0,.26-.89,1.21-1.09,1.41-.19-.26-.64-1.09-.64-1.34,0-.19.26-.19.26-.38,0-.13-.06-.13-.26-.13l-1.02-.06h0Z"/>
        <path d="m19.5,94.22c.45,0,.77.06.89.19.13.13.26.32.26.64v.38h0c0,.06,0,.13-.06.19,0,.13-.13.19-.26.26s-.32.13-.57.13h-2.49v-1.79h2.24Zm.38.96h0c0-.19,0-.32-.06-.38s-.19-.06-.45-.06h-1.28v.89h1.28c.26,0,.38,0,.45-.06,0-.13.06-.26.06-.38Z"/>
        <path d="m25.32,94.22c.32,0,.51.06.64.13.06.06.13.13.13.19s.06.19.06.26h0v.19c0,.06-.06.13-.06.13q-.06.06-.13.13c-.06,0-.13.06-.32.06.19,0,.32.06.38.06.06.06.13.13.13.26v.32h-.77v-.38c0-.06-.13-.06-.32-.06h-1.28v.45h-.77v-1.79h2.3v.06Zm-.26.89c.19,0,.26,0,.32-.06.06,0,.06-.13.06-.19v-.13s-.06-.06-.13-.06h-1.53v.45h1.28Z"/>
        <rect x="28.58" y="94.22" width=".77" height="1.79"/>
        <path d="m32.86,96.01l-1.34-1.79h.83l.96,1.34,1.02-1.34h.83l-1.41,1.79h-.89Z"/>
        <path d="m40.27,94.22v.38h-2.04v.32h1.92v.38h-1.92v.32h2.04v.38h-2.75v-1.79h2.75Z"/>
      </g>
      <path class="cls-30" d="m25.64,79.98c2.68-1.28,4.22-.32,5.3,1.47.77,1.85-.26,3.77-1.85,4.41-.77.26-1.92.7-2.94,1.09-1.21.45-4.47,1.66-4.47,1.66-.89-2.56-2.04-5.56-2.75-7.67-.45-2.36.96-4.02,3.13-4.15,2.75-.19,3.58,3.19,3.58,3.19h0Zm-.45,1.15c-.51-1.34-1.15-3.9-3.32-3.07-2.17,1.09-1.15,2.75-.51,4.41l1.41,3.9,5.81-2.17c2.36-1.09,1.09-4.34-1.41-3.83-.57.19-1.34.51-1.98.77h0Z"/>
      <path class="cls-29" d="m29.22,76.72c2.56,1.02,5.75,2.04,7.79,2.87,2.04,1.28,2.17,3.45.83,5.11-1.66,2.11-4.73.57-4.73.57-.83,2.81-2.49,3.51-4.54,3.07-1.85-.64-2.62-2.75-1.98-4.28.26-.77.7-1.92,1.09-2.87.06-.26.19-.45.32-.83.32.06.57.13.83.32l-1.41,3.71c-.77,2.49,2.43,3.77,3.77,1.53.19-.45.83-2.24,1.09-2.87,1.34.51,4.41,2.04,5.24-.13.64-2.36-1.28-2.75-2.94-3.39l-4.73-1.72-.63,1.82c-.32-.16-.58-.22-.9-.26"/>
    </g>
    <image class="cls-24" width="1782" height="1430" transform="translate(143.94 20.87) rotate(-10.13) scale(.03)" xlink:href="../../Desktop/Screenshot 2023-09-22 at 02.17 copy.png"/>
  </g>
</svg>