M48
INCH
T1C0.0157
T2C0.0315
%
G90
G05
T1
X4.1634Y-2.815
X4.2756Y-4.9331
X4.4685Y-4.5866
X4.5217Y-4.9783
X4.5354Y-3.6693
X4.5394Y-3.3976
X4.6811Y-3.4764
X4.6929Y-4.7343
X4.7795Y-2.5236
X4.8268Y-5.0551
X4.8504Y-3.3504
X4.8504Y-3.6693
X4.8583Y-4.9783
X4.9016Y-4.9055
X4.9035Y-4.874
X4.9291Y-5.0551
X5.0138Y-4.8484
X5.0187Y-5.0541
X5.0723Y-3.6654
X5.0827Y-2.5256
X5.1063Y-5.0551
X5.1211Y-4.9783
X5.128Y-2.624
X5.128Y-3.0709
X5.1535Y-2.565
X5.1535Y-3.8819
X5.1693Y-5.0551
X5.1811Y-2.5138
X5.1811Y-4.6063
X5.2087Y-2.4626
X5.2087Y-4.2461
X5.2362Y-2.4882
X5.2362Y-3.7441
X5.2362Y-3.9479
X5.2638Y-2.439
X5.2638Y-3.8504
X5.2638Y-4.127
X5.2913Y-2.5394
X5.2913Y-3.5906
X5.312Y-5.0669
X5.3406Y-4.7894
X5.3406Y-4.8268
X5.3425Y-3.2559
X5.3543Y-4.5492
X5.361Y-3.7677
X5.378Y-4.6772
X5.4094Y-4.6772
X5.4154Y-2.7736
X5.4154Y-3.2913
X5.4409Y-2.7461
X5.4409Y-3.2657
X5.4409Y-4.8361
X5.4572Y-2.6437
X5.4665Y-2.7195
X5.4665Y-3.2402
X5.5335Y-3.0832
X5.5372Y-3.7576
X5.5394Y-4.7544
X5.5394Y-4.8361
X5.626Y-4.5492
X5.6675Y-3.7581
X5.6772Y-4.6811
X5.6939Y-4.751
X5.6969Y-4.876
X5.7047Y-2.6683
X5.7087Y-3.376
X5.7618Y-4.5512
X5.7835Y-5.0079
X5.8189Y-4.937
X5.8563Y-5.0531
X5.9528Y-5.0531
X6.0236Y-3.2669
X6.0433Y-5.0531
X6.0571Y-4.8041
X6.1063Y-4.8041
X6.122Y-5.0531
X6.1752Y-3.3848
X6.1752Y-4.0945
X6.1811Y-4.7726
X6.1949Y-2.4213
X6.2028Y-3.4055
X6.2028Y-3.9587
X6.2028Y-5.0531
X6.2047Y-4.7972
X6.2303Y-3.3396
X6.2303Y-4.0561
X6.2569Y-2.6939
X6.2579Y-3.2165
X6.2579Y-3.3622
X6.2579Y-4.1575
X6.2854Y-2.9626
X6.2854Y-4.0108
X6.2854Y-4.7411
X6.2874Y-5.0531
X6.311Y-4.0305
X6.3129Y-4.7518
X6.313Y-3.315
X6.3189Y-2.4213
X6.3406Y-3.0118
X6.3406Y-4.0778
X6.3406Y-4.7096
X6.3583Y-4.8494
X6.3674Y-4.7218
X6.3681Y-4.0433
X6.3691Y-2.9852
X6.378Y-5.053
X6.3957Y-3.4508
X6.3957Y-3.9626
X6.4232Y-3.4272
X6.4232Y-3.9843
X6.4232Y-4.8248
X6.4508Y-2.5925
X6.4513Y-4.5064
X6.4783Y-3.4724
X6.4783Y-3.9213
X6.4783Y-4.5571
X6.5059Y-2.6161
X6.5059Y-3.9843
X6.5059Y-4.5413
X6.5157Y-5.0079
X6.5335Y-2.5157
X6.5335Y-4.437
X6.5512Y-5.0709
X6.561Y-2.5669
X6.561Y-4.5059
X6.5866Y-3.065
X6.5886Y-4.1407
X6.5886Y-4.6644
X6.6161Y-4.4783
X6.6181Y-2.5413
X6.6299Y-5.0531
X6.6437Y-2.4882
X6.6437Y-4.4114
X6.6713Y-4.1024
X6.6713Y-4.687
X6.6722Y-3.0364
X6.6988Y-4.1437
X6.6988Y-4.6043
X6.6988Y-5.0531
X6.6998Y-3.1132
X6.7264Y-4.628
X6.7274Y-3.0876
X6.7283Y-2.937
X6.7283Y-4.1201
X6.7303Y-2.7165
X6.7539Y-4.1663
X6.7549Y-3.1388
X6.7815Y-2.7195
X6.7815Y-3.813
X6.7815Y-4.2195
X6.7913Y-5.0551
X6.8091Y-3.7668
X6.8091Y-4.2677
X6.8108Y-2.6582
X6.8366Y-2.7077
X6.8366Y-3.6408
X6.8575Y-4.9102
X6.8639Y-2.5775
X6.8642Y-3.7372
X6.8642Y-4.3041
X6.8917Y-3.6043
X6.8937Y-2.7077
X6.9055Y-5.0551
X6.9179Y-2.492
X6.9193Y-3.7038
X6.9193Y-4.3248
X6.9469Y-2.7549
X6.9469Y-3.5266
X6.9724Y-3.5797
X6.9744Y-2.7293
X7.0012Y-5.0539
X7.002Y-3.6398
X7.002Y-4.2195
X7.0079Y-2.4311
X7.0295Y-2.4646
X7.0295Y-3.6742
X7.0295Y-4.2815
X7.0571Y-3.563
X7.0571Y-4.1398
X7.0807Y-5.0531
X7.0846Y-3.5945
X7.0866Y-4.1949
X7.1122Y-3.7894
X7.1398Y-3.7598
X7.1614Y-5.0531
X7.1673Y-3.7264
X7.1811Y-2.5935
X7.1811Y-2.6289
X7.1949Y-3.6969
X7.2165Y-2.5738
X7.228Y-2.6496
X7.2343Y-2.7953
X7.2421Y-5.0551
X7.3017Y-3.003
X7.3248Y-5.0551
X7.4075Y-5.0531
X7.4528Y-2.5088
X7.4567Y-5.0531
X7.4823Y-2.4872
X7.5709Y-5.0531
X7.6496Y-2.8278
X7.6496Y-2.9409
X7.6496Y-5.0512
X7.7323Y-4.9232
T2
X4.3327Y-2.3756
X4.3327Y-2.4756
X4.3327Y-2.5756
X4.3327Y-2.6756
X4.3327Y-2.7756
X4.3327Y-2.8756
X4.3327Y-2.9756
X4.3327Y-3.0756
X4.3327Y-3.1756
X4.4319Y-3.1772
X4.5319Y-3.1772
X4.6319Y-3.1772
X4.7319Y-3.1772
X4.8319Y-3.1772
X4.9331Y-2.3756
X4.9331Y-2.4756
X4.9331Y-2.5756
X4.9331Y-2.6756
X4.9331Y-2.7756
X4.9331Y-2.8756
X4.9331Y-2.9756
X4.9331Y-3.0756
X4.9331Y-3.1756
M30
