%TF.GenerationSoftware,KiCad,Pcbnew,8.0.1*%
%TF.CreationDate,2024-04-05T12:29:39-07:00*%
%TF.ProjectId,flash-32mbit,666c6173-682d-4333-926d-6269742e6b69,10*%
%TF.SameCoordinates,Original*%
%TF.FileFunction,Soldermask,Top*%
%TF.FilePolarity,Negative*%
%FSLAX46Y46*%
G04 Gerber Fmt 4.6, Leading zero omitted, Abs format (unit mm)*
G04 Created by KiCad (PCBNEW 8.0.1) date 2024-04-05 12:29:39*
%MOMM*%
%LPD*%
G01*
G04 APERTURE LIST*
G04 Aperture macros list*
%AMRoundRect*
0 Rectangle with rounded corners*
0 $1 Rounding radius*
0 $2 $3 $4 $5 $6 $7 $8 $9 X,Y pos of 4 corners*
0 Add a 4 corners polygon primitive as box body*
4,1,4,$2,$3,$4,$5,$6,$7,$8,$9,$2,$3,0*
0 Add four circle primitives for the rounded corners*
1,1,$1+$1,$2,$3*
1,1,$1+$1,$4,$5*
1,1,$1+$1,$6,$7*
1,1,$1+$1,$8,$9*
0 Add four rect primitives between the rounded corners*
20,1,$1+$1,$2,$3,$4,$5,0*
20,1,$1+$1,$4,$5,$6,$7,0*
20,1,$1+$1,$6,$7,$8,$9,0*
20,1,$1+$1,$8,$9,$2,$3,0*%
%AMFreePoly0*
4,1,23,0.858779,2.980902,0.895106,2.930902,0.900000,2.900000,0.900000,1.250000,0.886824,1.200386,0.700000,0.873444,0.700000,-1.400000,0.680902,-1.458779,0.630902,-1.495106,0.600000,-1.500000,-0.600000,-1.500000,-0.658779,-1.480902,-0.695106,-1.430902,-0.700000,-1.400000,-0.700000,0.873444,-0.886824,1.200386,-0.900000,1.250000,-0.900000,2.900000,-0.880902,2.958779,-0.830902,2.995106,
-0.800000,3.000000,0.800000,3.000000,0.858779,2.980902,0.858779,2.980902,$1*%
%AMFreePoly1*
4,1,19,0.558779,1.480902,0.585166,1.452410,0.985166,0.802410,1.000000,0.750000,1.000000,-1.400000,0.980902,-1.458779,0.930902,-1.495106,0.900000,-1.500000,-0.900000,-1.500000,-0.958779,-1.480902,-0.995106,-1.430902,-1.000000,-1.400000,-1.000000,0.750000,-0.985166,0.802410,-0.585166,1.452410,-0.538095,1.492460,-0.500000,1.500000,0.500000,1.500000,0.558779,1.480902,0.558779,1.480902,
$1*%
G04 Aperture macros list end*
%ADD10RoundRect,0.250000X0.450000X-0.350000X0.450000X0.350000X-0.450000X0.350000X-0.450000X-0.350000X0*%
%ADD11RoundRect,0.250000X-0.475000X0.337500X-0.475000X-0.337500X0.475000X-0.337500X0.475000X0.337500X0*%
%ADD12R,1.750000X0.450000*%
%ADD13RoundRect,0.150000X0.150000X-0.512500X0.150000X0.512500X-0.150000X0.512500X-0.150000X-0.512500X0*%
%ADD14R,1.924000X0.700000*%
%ADD15RoundRect,0.250000X-0.450000X0.350000X-0.450000X-0.350000X0.450000X-0.350000X0.450000X0.350000X0*%
%ADD16RoundRect,0.150000X-0.512500X-0.150000X0.512500X-0.150000X0.512500X0.150000X-0.512500X0.150000X0*%
%ADD17RoundRect,0.250000X0.350000X0.450000X-0.350000X0.450000X-0.350000X-0.450000X0.350000X-0.450000X0*%
%ADD18RoundRect,0.250000X-0.350000X-0.450000X0.350000X-0.450000X0.350000X0.450000X-0.350000X0.450000X0*%
%ADD19RoundRect,0.250000X0.337500X0.475000X-0.337500X0.475000X-0.337500X-0.475000X0.337500X-0.475000X0*%
%ADD20RoundRect,0.400000X-1.600000X0.400000X-1.600000X-0.400000X1.600000X-0.400000X1.600000X0.400000X0*%
%ADD21RoundRect,0.400000X0.400000X1.600000X-0.400000X1.600000X-0.400000X-1.600000X0.400000X-1.600000X0*%
%ADD22RoundRect,0.400000X1.600000X-0.400000X1.600000X0.400000X-1.600000X0.400000X-1.600000X-0.400000X0*%
%ADD23C,5.000000*%
%ADD24RoundRect,0.075000X0.075000X-0.809000X0.075000X0.809000X-0.075000X0.809000X-0.075000X-0.809000X0*%
%ADD25FreePoly0,0.000000*%
%ADD26FreePoly1,0.000000*%
%ADD27RoundRect,0.250000X-0.337500X-0.475000X0.337500X-0.475000X0.337500X0.475000X-0.337500X0.475000X0*%
%ADD28RoundRect,0.150000X-0.150000X0.587500X-0.150000X-0.587500X0.150000X-0.587500X0.150000X0.587500X0*%
G04 APERTURE END LIST*
%TO.C,J1*%
G36*
X102100000Y-129675000D02*
G01*
X198300000Y-129675000D01*
X198300000Y-135275000D01*
X102100000Y-135275000D01*
X102100000Y-129675000D01*
G37*
%TD*%
D10*
%TO.C,R12*%
X118900000Y-93200000D03*
X118900000Y-91200000D03*
%TD*%
D11*
%TO.C,C6*%
X140550000Y-78312500D03*
X140550000Y-80387500D03*
%TD*%
D10*
%TO.C,R11*%
X118900000Y-88300000D03*
X118900000Y-86300000D03*
%TD*%
%TO.C,R1*%
X129500000Y-85900000D03*
X129500000Y-83900000D03*
%TD*%
D12*
%TO.C,U7*%
X143100000Y-61925000D03*
X143100000Y-62575000D03*
X143100000Y-63225000D03*
X143100000Y-63875000D03*
X143100000Y-64525000D03*
X143100000Y-65175000D03*
X143100000Y-65825000D03*
X143100000Y-66475000D03*
X143100000Y-67125000D03*
X143100000Y-67775000D03*
X143100000Y-68425000D03*
X143100000Y-69075000D03*
X143100000Y-69725000D03*
X143100000Y-70375000D03*
X150300000Y-70375000D03*
X150300000Y-69725000D03*
X150300000Y-69075000D03*
X150300000Y-68425000D03*
X150300000Y-67775000D03*
X150300000Y-67125000D03*
X150300000Y-66475000D03*
X150300000Y-65825000D03*
X150300000Y-65175000D03*
X150300000Y-64525000D03*
X150300000Y-63875000D03*
X150300000Y-63225000D03*
X150300000Y-62575000D03*
X150300000Y-61925000D03*
%TD*%
D13*
%TO.C,D2*%
X114850000Y-125137500D03*
X116750000Y-125137500D03*
X115800000Y-122862500D03*
%TD*%
D10*
%TO.C,R6*%
X119150000Y-124400000D03*
X119150000Y-122400000D03*
%TD*%
D14*
%TO.C,U2*%
X113537000Y-96125000D03*
X113537000Y-97395000D03*
X113537000Y-98665000D03*
X113537000Y-99935000D03*
X113537000Y-101205000D03*
X113537000Y-102475000D03*
X113537000Y-103745000D03*
X113537000Y-105015000D03*
X113537000Y-106285000D03*
X113537000Y-107555000D03*
X113537000Y-108825000D03*
X113537000Y-110095000D03*
X113537000Y-111365000D03*
X113537000Y-112635000D03*
X113537000Y-113905000D03*
X113537000Y-115175000D03*
X126763000Y-115175000D03*
X126763000Y-113905000D03*
X126763000Y-112635000D03*
X126763000Y-111365000D03*
X126763000Y-110095000D03*
X126763000Y-108825000D03*
X126763000Y-107555000D03*
X126763000Y-106285000D03*
X126763000Y-105015000D03*
X126763000Y-103745000D03*
X126763000Y-102475000D03*
X126763000Y-101205000D03*
X126763000Y-99935000D03*
X126763000Y-98665000D03*
X126763000Y-97395000D03*
X126763000Y-96125000D03*
%TD*%
D11*
%TO.C,C4*%
X140700000Y-120762500D03*
X140700000Y-122837500D03*
%TD*%
D15*
%TO.C,R8*%
X108600000Y-123300000D03*
X108600000Y-125300000D03*
%TD*%
D16*
%TO.C,U3*%
X133375000Y-120700000D03*
X133375000Y-121650000D03*
X133375000Y-122600000D03*
X135650000Y-122600000D03*
X135650000Y-120700000D03*
%TD*%
D11*
%TO.C,C2*%
X138200000Y-120762500D03*
X138200000Y-122837500D03*
%TD*%
D12*
%TO.C,U6*%
X143100000Y-75175000D03*
X143100000Y-75825000D03*
X143100000Y-76475000D03*
X143100000Y-77125000D03*
X143100000Y-77775000D03*
X143100000Y-78425000D03*
X143100000Y-79075000D03*
X143100000Y-79725000D03*
X143100000Y-80375000D03*
X143100000Y-81025000D03*
X143100000Y-81675000D03*
X143100000Y-82325000D03*
X143100000Y-82975000D03*
X143100000Y-83625000D03*
X150300000Y-83625000D03*
X150300000Y-82975000D03*
X150300000Y-82325000D03*
X150300000Y-81675000D03*
X150300000Y-81025000D03*
X150300000Y-80375000D03*
X150300000Y-79725000D03*
X150300000Y-79075000D03*
X150300000Y-78425000D03*
X150300000Y-77775000D03*
X150300000Y-77125000D03*
X150300000Y-76475000D03*
X150300000Y-75825000D03*
X150300000Y-75175000D03*
%TD*%
D10*
%TO.C,R10*%
X115200000Y-88300000D03*
X115200000Y-86300000D03*
%TD*%
D17*
%TO.C,R4*%
X121200000Y-120250000D03*
X119200000Y-120250000D03*
%TD*%
D18*
%TO.C,R5*%
X126500000Y-117900000D03*
X128500000Y-117900000D03*
%TD*%
D15*
%TO.C,R13*%
X123200000Y-91200000D03*
X123200000Y-93200000D03*
%TD*%
%TO.C,R9*%
X115200000Y-91200000D03*
X115200000Y-93200000D03*
%TD*%
D19*
%TO.C,C1*%
X128837500Y-93100000D03*
X126762500Y-93100000D03*
%TD*%
D20*
%TO.C,U4*%
X126300000Y-60340000D03*
X126300000Y-62880000D03*
X126300000Y-65420000D03*
X126300000Y-67960000D03*
X126300000Y-70500000D03*
X126300000Y-73040000D03*
X126300000Y-75580000D03*
X126300000Y-78120000D03*
X126300000Y-80660000D03*
D21*
X122730000Y-81700000D03*
X120190000Y-81700000D03*
X117650000Y-81700000D03*
X115110000Y-81700000D03*
X112570000Y-81700000D03*
D22*
X109050000Y-80660000D03*
X109050000Y-78120000D03*
X109050000Y-75580000D03*
X109050000Y-73040000D03*
X109050000Y-70500000D03*
X109050000Y-67960000D03*
X109050000Y-65420000D03*
X109050000Y-62880000D03*
X109050000Y-60340000D03*
%TD*%
D23*
%TO.C,H1*%
X109000000Y-90500000D03*
%TD*%
D10*
%TO.C,R3*%
X134400000Y-93200000D03*
X134400000Y-91200000D03*
%TD*%
D15*
%TO.C,R14*%
X131800000Y-91200000D03*
X131800000Y-93200000D03*
%TD*%
D24*
%TO.C,U1*%
X136350000Y-117084000D03*
X136850000Y-117084000D03*
X137350000Y-117084000D03*
X137850000Y-117084000D03*
X138350000Y-117084000D03*
X138850000Y-117084000D03*
X139350000Y-117084000D03*
X139850000Y-117084000D03*
X140350000Y-117084000D03*
X140850000Y-117084000D03*
X141350000Y-117084000D03*
X141850000Y-117084000D03*
X142350000Y-117084000D03*
X142850000Y-117084000D03*
X143350000Y-117084000D03*
X143850000Y-117084000D03*
X144350000Y-117084000D03*
X144850000Y-117084000D03*
X145350000Y-117084000D03*
X145850000Y-117084000D03*
X146350000Y-117084000D03*
X146850000Y-117084000D03*
X147350000Y-117084000D03*
X147850000Y-117084000D03*
X148350000Y-117084000D03*
X148850000Y-117084000D03*
X149350000Y-117084000D03*
X149850000Y-117084000D03*
X149850000Y-97516000D03*
X149350000Y-97516000D03*
X148850000Y-97516000D03*
X148350000Y-97516000D03*
X147850000Y-97516000D03*
X147350000Y-97516000D03*
X146850000Y-97516000D03*
X146350000Y-97516000D03*
X145850000Y-97516000D03*
X145350000Y-97516000D03*
X144850000Y-97516000D03*
X144350000Y-97516000D03*
X143850000Y-97516000D03*
X143350000Y-97516000D03*
X142850000Y-97516000D03*
X142350000Y-97516000D03*
X141850000Y-97516000D03*
X141350000Y-97516000D03*
X140850000Y-97516000D03*
X140350000Y-97516000D03*
X139850000Y-97516000D03*
X139350000Y-97516000D03*
X138850000Y-97516000D03*
X138350000Y-97516000D03*
X137850000Y-97516000D03*
X137350000Y-97516000D03*
X136850000Y-97516000D03*
X136350000Y-97516000D03*
%TD*%
D25*
%TO.C,J1*%
X104000000Y-132775000D03*
D26*
X106100000Y-132775000D03*
D25*
X108200000Y-132775000D03*
D26*
X110300000Y-132775000D03*
D25*
X112400000Y-132775000D03*
D26*
X114500000Y-132775000D03*
D25*
X116600000Y-132775000D03*
D26*
X118700000Y-132775000D03*
D25*
X120800000Y-132775000D03*
D26*
X122900000Y-132775000D03*
D25*
X125000000Y-132775000D03*
D26*
X127100000Y-132775000D03*
D25*
X129200000Y-132775000D03*
D26*
X131300000Y-132775000D03*
D25*
X133400000Y-132775000D03*
D26*
X135500000Y-132775000D03*
D25*
X137600000Y-132775000D03*
D26*
X139700000Y-132775000D03*
D25*
X141800000Y-132775000D03*
D26*
X143900000Y-132775000D03*
D25*
X146000000Y-132775000D03*
D26*
X148100000Y-132775000D03*
D25*
X150200000Y-132775000D03*
D26*
X152300000Y-132775000D03*
D25*
X154400000Y-132775000D03*
D26*
X156500000Y-132775000D03*
D25*
X158600000Y-132775000D03*
D26*
X160700000Y-132775000D03*
D25*
X162800000Y-132775000D03*
D26*
X164900000Y-132775000D03*
D25*
X167000000Y-132775000D03*
D26*
X169100000Y-132775000D03*
D25*
X171200000Y-132775000D03*
D26*
X173300000Y-132775000D03*
D25*
X175400000Y-132775000D03*
D26*
X177500000Y-132775000D03*
D25*
X179600000Y-132775000D03*
D26*
X181700000Y-132775000D03*
D25*
X183800000Y-132775000D03*
D26*
X185900000Y-132775000D03*
D25*
X188000000Y-132775000D03*
D26*
X190100000Y-132775000D03*
D25*
X192200000Y-132775000D03*
D26*
X194300000Y-132775000D03*
D25*
X196400000Y-132775000D03*
%TD*%
D10*
%TO.C,R2*%
X121200000Y-124400000D03*
X121200000Y-122400000D03*
%TD*%
D12*
%TO.C,U5*%
X185300000Y-65350000D03*
X185300000Y-66000000D03*
X185300000Y-66650000D03*
X185300000Y-67300000D03*
X185300000Y-67950000D03*
X185300000Y-68600000D03*
X185300000Y-69250000D03*
X185300000Y-69900000D03*
X185300000Y-70550000D03*
X185300000Y-71200000D03*
X185300000Y-71850000D03*
X185300000Y-72500000D03*
X185300000Y-73150000D03*
X185300000Y-73800000D03*
X192500000Y-73800000D03*
X192500000Y-73150000D03*
X192500000Y-72500000D03*
X192500000Y-71850000D03*
X192500000Y-71200000D03*
X192500000Y-70550000D03*
X192500000Y-69900000D03*
X192500000Y-69250000D03*
X192500000Y-68600000D03*
X192500000Y-67950000D03*
X192500000Y-67300000D03*
X192500000Y-66650000D03*
X192500000Y-66000000D03*
X192500000Y-65350000D03*
%TD*%
D27*
%TO.C,C5*%
X185462500Y-76275000D03*
X187537500Y-76275000D03*
%TD*%
D28*
%TO.C,D3*%
X124150000Y-86362500D03*
X122250000Y-86362500D03*
X123200000Y-88237500D03*
%TD*%
D23*
%TO.C,H2*%
X188250000Y-90500000D03*
%TD*%
D27*
%TO.C,C7*%
X138612500Y-67150000D03*
X140687500Y-67150000D03*
%TD*%
D28*
%TO.C,D1*%
X129550000Y-88562500D03*
X127650000Y-88562500D03*
X128600000Y-90437500D03*
%TD*%
M02*
