%TF.GenerationSoftware,KiCad,Pcbnew,8.0.1*%
%TF.CreationDate,2024-04-05T12:29:39-07:00*%
%TF.ProjectId,flash-32mbit,666c6173-682d-4333-926d-6269742e6b69,10*%
%TF.SameCoordinates,Original*%
%TF.FileFunction,Profile,NP*%
%FSLAX46Y46*%
G04 Gerber Fmt 4.6, Leading zero omitted, Abs format (unit mm)*
G04 Created by KiCad (PCBNEW 8.0.1) date 2024-04-05 12:29:39*
%MOMM*%
%LPD*%
G01*
G04 APERTURE LIST*
%TA.AperFunction,Profile*%
%ADD10C,0.100000*%
%TD*%
%ADD11C,0.200000*%
G04 APERTURE END LIST*
D10*
X102107400Y-111500000D02*
X102107400Y-119250000D01*
X198357400Y-119269307D02*
X198357400Y-111500000D01*
X198357400Y-60950000D02*
X196357400Y-58950000D01*
X105857400Y-106500000D02*
X105857400Y-111500000D01*
X104357400Y-58950000D02*
X102107400Y-60950000D01*
X102107400Y-60950000D02*
X102107400Y-106500000D01*
X198357400Y-111500000D02*
X194607400Y-111500000D01*
X194607400Y-111500000D02*
X194607400Y-106500000D01*
X102107400Y-124250000D02*
X102107400Y-134200000D01*
X197357981Y-135200000D02*
X103107400Y-135200000D01*
X198363770Y-124233104D02*
G75*
G02*
X198357400Y-119269307I936230J2483104D01*
G01*
X105857400Y-111500000D02*
X102107400Y-111500000D01*
X102107400Y-106500000D02*
X105857400Y-106500000D01*
X104357400Y-58950000D02*
X196357400Y-58950000D01*
X102107400Y-119250001D02*
G75*
G02*
X102107399Y-124249999I-1000000J-2499999D01*
G01*
X198363770Y-124233104D02*
X198357981Y-134200581D01*
X194607400Y-106500000D02*
X198357400Y-106500000D01*
X198357981Y-134200581D02*
G75*
G02*
X197357981Y-135199981I-999981J581D01*
G01*
X103107400Y-135200000D02*
G75*
G02*
X102107400Y-134200000I0J1000000D01*
G01*
X198357400Y-106500000D02*
X198357400Y-60950000D01*
D11*
X110442600Y-65370000D02*
G75*
G02*
X109642600Y-65370000I-400000J0D01*
G01*
X109642600Y-65370000D02*
G75*
G02*
X110442600Y-65370000I400000J0D01*
G01*
X103329639Y-120190461D02*
X103493118Y-120465907D01*
X103100000Y-135150000D02*
X197350581Y-135150000D01*
X194600000Y-106450000D02*
X198350000Y-106450000D01*
X195350000Y-71635201D02*
X195350000Y-80635201D01*
X103716646Y-122334954D02*
X103622732Y-122641183D01*
X103792582Y-121700000D02*
X103773531Y-122019739D01*
X103622732Y-120758818D02*
X103716646Y-121065047D01*
X102661338Y-119506322D02*
X102910785Y-119707249D01*
X102100000Y-134150000D02*
X102119215Y-134345090D01*
X197783438Y-119517167D02*
X198057705Y-119351092D01*
X196638863Y-121703406D02*
X196657822Y-121383337D01*
X102910785Y-119707249D02*
X103134608Y-119936376D01*
X104350000Y-58900000D02*
X102100000Y-60900000D01*
X197789045Y-123886700D02*
X197536301Y-123689408D01*
X196716874Y-122338722D02*
X196658643Y-122023425D01*
X125692600Y-60290000D02*
G75*
G02*
X124892600Y-60290000I-400000J0D01*
G01*
X124892600Y-60290000D02*
G75*
G02*
X125692600Y-60290000I400000J0D01*
G01*
X110442600Y-75530000D02*
G75*
G02*
X109642600Y-75530000I-400000J0D01*
G01*
X109642600Y-75530000D02*
G75*
G02*
X110442600Y-75530000I400000J0D01*
G01*
X198350000Y-111450000D02*
X194600000Y-111450000D01*
X110442600Y-78070000D02*
G75*
G02*
X109642600Y-78070000I-400000J0D01*
G01*
X109642600Y-78070000D02*
G75*
G02*
X110442600Y-78070000I400000J0D01*
G01*
X197536301Y-123689408D02*
X197309195Y-123463076D01*
X125692600Y-75530000D02*
G75*
G02*
X124892600Y-75530000I-400000J0D01*
G01*
X124892600Y-75530000D02*
G75*
G02*
X125692600Y-75530000I400000J0D01*
G01*
X196944737Y-122936879D02*
X196812704Y-122644696D01*
X103329639Y-123209539D02*
X103134608Y-123463624D01*
X102389795Y-124063563D02*
X102100000Y-124200000D01*
X198350000Y-119219307D02*
X198350000Y-111450000D01*
X196810288Y-120761672D02*
X196941570Y-120469151D01*
X198350000Y-80635201D02*
X198350000Y-71635201D01*
X197309195Y-123463076D02*
X197111043Y-123211006D01*
X102176120Y-134532683D02*
X102268530Y-134705570D01*
X198350581Y-134150581D02*
X198356370Y-124183104D01*
X190742600Y-90450000D02*
G75*
G02*
X185742600Y-90450000I-2500000J0D01*
G01*
X185742600Y-90450000D02*
G75*
G02*
X190742600Y-90450000I2500000J0D01*
G01*
X125692600Y-67910000D02*
G75*
G02*
X124892600Y-67910000I-400000J0D01*
G01*
X124892600Y-67910000D02*
G75*
G02*
X125692600Y-67910000I400000J0D01*
G01*
X102389795Y-119336437D02*
X102661338Y-119506322D01*
X197111043Y-123211006D02*
X196944737Y-122936879D01*
X196812704Y-122644696D02*
X196716874Y-122338722D01*
X198350000Y-80635201D02*
G75*
G02*
X195350000Y-80635201I-1500000J0D01*
G01*
X102100000Y-71635201D02*
X102100000Y-80635201D01*
X198350000Y-60900000D02*
X198350000Y-106450000D01*
X125692600Y-78070000D02*
G75*
G02*
X124892600Y-78070000I-400000J0D01*
G01*
X124892600Y-78070000D02*
G75*
G02*
X125692600Y-78070000I400000J0D01*
G01*
X102717317Y-135073880D02*
X102904910Y-135130785D01*
X105850000Y-111450000D02*
X102100000Y-111450000D01*
X196658643Y-122023425D02*
X196638863Y-121703406D01*
X110442600Y-70450000D02*
G75*
G02*
X109642600Y-70450000I-400000J0D01*
G01*
X109642600Y-70450000D02*
G75*
G02*
X110442600Y-70450000I400000J0D01*
G01*
X102661337Y-123893679D02*
X102389795Y-124063563D01*
X103773531Y-122019739D02*
X103716646Y-122334954D01*
X197733129Y-135073923D02*
X197905969Y-134981582D01*
X198274293Y-134533083D02*
X198331267Y-134345588D01*
X197350581Y-135150000D02*
X197545599Y-135130784D01*
X110442600Y-80610000D02*
G75*
G02*
X109642600Y-80610000I-400000J0D01*
G01*
X109642600Y-80610000D02*
G75*
G02*
X110442600Y-80610000I400000J0D01*
G01*
X198181848Y-134705868D02*
X198274293Y-134533083D01*
X125692600Y-72990000D02*
G75*
G02*
X124892600Y-72990000I-400000J0D01*
G01*
X124892600Y-72990000D02*
G75*
G02*
X125692600Y-72990000I400000J0D01*
G01*
X102910785Y-123692751D02*
X102661337Y-123893679D01*
X102100000Y-111450000D02*
X102100000Y-119200001D01*
X198350000Y-106450000D02*
X198350000Y-60900000D01*
X103716646Y-121065047D02*
X103773531Y-121380261D01*
X197107172Y-120194598D02*
X197304676Y-119942020D01*
X102100000Y-106450000D02*
X102100000Y-60900000D01*
X102544430Y-134981470D02*
X102717317Y-135073880D01*
X102392893Y-134857107D02*
X102544430Y-134981470D01*
X125692600Y-65370000D02*
G75*
G02*
X124892600Y-65370000I-400000J0D01*
G01*
X124892600Y-65370000D02*
G75*
G02*
X125692600Y-65370000I400000J0D01*
G01*
X198063738Y-124052070D02*
X197789045Y-123886700D01*
X102904910Y-135130785D02*
X103100000Y-135150000D01*
X105100000Y-80635201D02*
G75*
G02*
X102100000Y-80635201I-1500000J0D01*
G01*
X198350000Y-60900000D02*
X196350000Y-58900000D01*
X198057481Y-134857306D02*
X198181848Y-134705868D01*
X103493118Y-122934093D02*
X103329639Y-123209539D01*
X103134608Y-119936376D02*
X103329639Y-120190461D01*
X125692600Y-62830000D02*
G75*
G02*
X124892600Y-62830000I-400000J0D01*
G01*
X124892600Y-62830000D02*
G75*
G02*
X125692600Y-62830000I400000J0D01*
G01*
X102100000Y-60900000D02*
X102100000Y-106450000D01*
X102100000Y-124200000D02*
X102100000Y-134150000D01*
X198356370Y-124183104D02*
X198063738Y-124052070D01*
X196715243Y-121067891D02*
X196810288Y-120761672D01*
X197531201Y-119715106D02*
X197783438Y-119517167D01*
X110442600Y-62830000D02*
G75*
G02*
X109642600Y-62830000I-400000J0D01*
G01*
X109642600Y-62830000D02*
G75*
G02*
X110442600Y-62830000I400000J0D01*
G01*
X198883569Y-127200000D02*
X101070631Y-127200000D01*
X112962600Y-80650000D02*
G75*
G02*
X112162600Y-80650000I-400000J0D01*
G01*
X112162600Y-80650000D02*
G75*
G02*
X112962600Y-80650000I400000J0D01*
G01*
X118042600Y-80650000D02*
G75*
G02*
X117242600Y-80650000I-400000J0D01*
G01*
X117242600Y-80650000D02*
G75*
G02*
X118042600Y-80650000I400000J0D01*
G01*
X104350000Y-58900000D02*
X196350000Y-58900000D01*
X103622732Y-122641183D02*
X103493118Y-122934093D01*
X194600000Y-111450000D02*
X194600000Y-106450000D01*
X125692600Y-80610000D02*
G75*
G02*
X124892600Y-80610000I-400000J0D01*
G01*
X124892600Y-80610000D02*
G75*
G02*
X125692600Y-80610000I400000J0D01*
G01*
X196350000Y-58900000D02*
X104350000Y-58900000D01*
X103493118Y-120465907D02*
X103622732Y-120758818D01*
X197304676Y-119942020D02*
X197531201Y-119715106D01*
X197905969Y-134981582D02*
X198057481Y-134857306D01*
X111492600Y-90450000D02*
G75*
G02*
X106492600Y-90450000I-2500000J0D01*
G01*
X106492600Y-90450000D02*
G75*
G02*
X111492600Y-90450000I2500000J0D01*
G01*
X110442600Y-67910000D02*
G75*
G02*
X109642600Y-67910000I-400000J0D01*
G01*
X109642600Y-67910000D02*
G75*
G02*
X110442600Y-67910000I400000J0D01*
G01*
X103773531Y-121380261D02*
X103792582Y-121700000D01*
X197350581Y-135150000D02*
X103100000Y-135150000D01*
X105850000Y-106450000D02*
X105850000Y-111450000D01*
X125692600Y-70450000D02*
G75*
G02*
X124892600Y-70450000I-400000J0D01*
G01*
X124892600Y-70450000D02*
G75*
G02*
X125692600Y-70450000I400000J0D01*
G01*
X102119215Y-134345090D02*
X102176120Y-134532683D01*
X196941570Y-120469151D02*
X197107172Y-120194598D01*
X198057705Y-119351092D02*
X198350000Y-119219307D01*
X102100000Y-119200001D02*
X102389795Y-119336437D01*
X123122600Y-80650000D02*
G75*
G02*
X122322600Y-80650000I-400000J0D01*
G01*
X122322600Y-80650000D02*
G75*
G02*
X123122600Y-80650000I400000J0D01*
G01*
X102268530Y-134705570D02*
X102392893Y-134857107D01*
X105100000Y-80635201D02*
X105100000Y-71635201D01*
X120582600Y-80650000D02*
G75*
G02*
X119782600Y-80650000I-400000J0D01*
G01*
X119782600Y-80650000D02*
G75*
G02*
X120582600Y-80650000I400000J0D01*
G01*
X195350000Y-71635201D02*
G75*
G02*
X198350000Y-71635201I1500000J0D01*
G01*
X102100000Y-71635201D02*
G75*
G02*
X105100000Y-71635201I1500000J0D01*
G01*
X103134608Y-123463624D02*
X102910785Y-123692751D01*
X196657822Y-121383337D02*
X196715243Y-121067891D01*
X110442600Y-72990000D02*
G75*
G02*
X109642600Y-72990000I-400000J0D01*
G01*
X109642600Y-72990000D02*
G75*
G02*
X110442600Y-72990000I400000J0D01*
G01*
X115502600Y-80650000D02*
G75*
G02*
X114702600Y-80650000I-400000J0D01*
G01*
X114702600Y-80650000D02*
G75*
G02*
X115502600Y-80650000I400000J0D01*
G01*
X110442600Y-60290000D02*
G75*
G02*
X109642600Y-60290000I-400000J0D01*
G01*
X109642600Y-60290000D02*
G75*
G02*
X110442600Y-60290000I400000J0D01*
G01*
X198331267Y-134345588D02*
X198350581Y-134150581D01*
X197545599Y-135130784D02*
X197733129Y-135073923D01*
X102100000Y-106450000D02*
X105850000Y-106450000D01*
M02*
