0
SECTION
2
HEADER
9
$INSUNITS
70
4
9
$ACADVER
1
AC1014
9
$HANDSEED
5
FFFF
0
ENDSEC
0
SECTION
2
TABLES
0
TABLE
2
VPORT
5
8
100
AcDbSymbolTable
0
ENDTAB
0
TABLE
2
LTYPE
5
5
100
AcDbSymbolTable
0
LTYPE
5
14
100
AcDbSymbolTableRecord
100
AcDbLinetypeTableRecord
2
BYBLOCK
70
0
0
LTYPE
5
15
100
AcDbSymbolTableRecord
100
AcDbLinetypeTableRecord
2
BYLAYER
70
0
0
ENDTAB
0
TABLE
2
LAYER
5
2
100
AcDbSymbolTable
70
2
0
LAYER
5
50
100
AcDbSymbolTableRecord
100
AcDbLayerTableRecord
2
0
70
0
6
CONTINUOUS
0
ENDTAB
0
TABLE
2
STYLE
5
3
100
AcDbSymbolTable
70
1
0
STYLE
5
11
100
AcDbSymbolTableRecord
100
AcDbTextStyleTableRecord
2
STANDARD
70
0
0
ENDTAB
0
TABLE
2
VIEW
5
6
100
AcDbSymbolTable
70
0
0
ENDTAB
0
TABLE
2
UCS
5
7
100
AcDbSymbolTable
70
0
0
ENDTAB
0
TABLE
2
APPID
5
9
100
AcDbSymbolTable
70
2
0
APPID
5
12
100
AcDbSymbolTableRecord
100
AcDbRegAppTableRecord
2
ACAD
70
0
0
ENDTAB
0
TABLE
2
DIMSTYLE
5
A
100
AcDbSymbolTable
70
1
0
ENDTAB
0
TABLE
2
BLOCK_RECORD
5
1
100
AcDbSymbolTable
70
1
0
BLOCK_RECORD
5
1F
100
AcDbSymbolTableRecord
100
AcDbBlockTableRecord
2
*MODEL_SPACE
0
BLOCK_RECORD
5
1B
100
AcDbSymbolTableRecord
100
AcDbBlockTableRecord
2
*PAPER_SPACE
0
ENDTAB
0
ENDSEC
0
SECTION
2
BLOCKS
0
BLOCK
5
20
100
AcDbEntity
100
AcDbBlockBegin
2
*MODEL_SPACE
0
ENDBLK
5
21
100
AcDbEntity
100
AcDbBlockEnd
0
BLOCK
5
1C
100
AcDbEntity
100
AcDbBlockBegin
2
*PAPER_SPACE
0
ENDBLK
5
1D
100
AcDbEntity
100
AcDbBlockEnd
0
ENDSEC
0
SECTION
2
ENTITIES
0
LWPOLYLINE
5
100
100
AcDbEntity
8
0
100
AcDbPolyline
90
72
70
1
43
0.0
10
48.372900003409569
20
-27.049999999999965
10
48.372900003409569
20
18.50000000000005
10
44.622900003409569
20
18.500000000000053
10
44.622900003409569
20
23.500000000000053
10
48.372900003409569
20
23.50000000000005
10
48.372900003409569
20
31.269307000000047
10
48.080605003409573
20
31.401092000000055
10
47.806338003409572
20
31.567167000000055
10
47.554101003409563
20
31.765106000000053
10
47.327576003409568
20
31.992020000000061
10
47.130072003409573
20
32.24459800000006
10
46.964470003409566
20
32.519151000000058
10
46.83318800340956
20
32.811672000000051
10
46.738143003409569
20
33.11789100000005
10
46.680722003409571
20
33.433337000000051
10
46.661763003409568
20
33.753406000000055
10
46.681543003409573
20
34.073425000000057
10
46.739774003409565
20
34.388722000000051
10
46.835604003409571
20
34.69469600000005
10
46.967637003409564
20
34.986879000000052
10
47.13394300340957
20
35.261006000000059
10
47.332095003409563
20
35.513076000000055
10
47.559201003409569
20
35.739408000000054
10
47.811945003409562
20
35.936700000000052
10
48.086638003409561
20
36.102070000000055
10
48.379270003409573
20
36.233104000000054
10
48.373481003409573
20
46.200581000000049
10
48.354167003409572
20
46.395588000000068
10
48.297193003409561
20
46.583083000000059
10
48.20474800340957
20
46.755868000000056
10
48.08038100340957
20
46.907306000000062
10
47.928869003409567
20
47.031582000000057
10
47.756029003409566
20
47.123923000000062
10
47.568499003409563
20
47.180784000000067
10
47.373481003409566
20
47.20000000000006
10
-46.877099996590481
20
47.20000000000006
10
-47.072189996590474
20
47.180785000000057
10
-47.259782996590474
20
47.123880000000057
10
-47.432669996590477
20
47.03147000000007
10
-47.584206996590474
20
46.907107000000053
10
-47.708569996590469
20
46.755570000000056
10
-47.800979996590478
20
46.58268300000006
10
-47.857884996590478
20
46.395090000000053
10
-47.877099996590474
20
46.200000000000053
10
-47.877099996590474
20
36.250000000000064
10
-47.587304996590461
20
36.113563000000049
10
-47.315762996590472
20
35.943679000000053
10
-47.066314996590471
20
35.742751000000055
10
-46.842491996590482
20
35.513624000000057
10
-46.647460996590475
20
35.259539000000061
10
-46.483981996590472
20
34.984093000000051
10
-46.354367996590469
20
34.691183000000052
10
-46.260453996590471
20
34.38495400000005
10
-46.203568996590469
20
34.069739000000048
10
-46.184517996590472
20
33.750000000000057
10
-46.203568996590469
20
33.430261000000051
10
-46.260453996590471
20
33.115047000000061
10
-46.354367996590469
20
32.808818000000059
10
-46.483981996590472
20
32.515907000000055
10
-46.647460996590475
20
32.240461000000053
10
-46.842491996590482
20
31.986376000000053
10
-47.066314996590471
20
31.757249000000055
10
-47.315761996590467
20
31.556322000000051
10
-47.587304996590461
20
31.386437000000058
10
-47.877099996590474
20
31.250001000000054
10
-47.877099996590474
20
23.500000000000053
10
-44.127099996590474
20
23.50000000000005
10
-44.127099996590474
20
18.50000000000005
10
-47.877099996590474
20
18.500000000000053
10
-47.877099996590474
20
-27.049999999999965
10
-45.627099996590474
20
-29.049999999999962
10
46.372900003409555
20
-29.049999999999958
0
CIRCLE
5
101
100
AcDbEntity
8
0
100
AcDbCircle
10
38.265500003409571
20
2.5000000000000453
30
0
40
2.5000000000000009
210
0
220
-0
230
1
0
CIRCLE
5
102
100
AcDbEntity
8
0
100
AcDbCircle
10
-40.984499996590472
20
2.5000000000000453
30
0
40
2.5000000000000009
210
0
220
-0
230
1
0
CIRCLE
5
103
100
AcDbEntity
8
0
100
AcDbCircle
10
-24.684499996590464
20
-7.3399999999999563
30
0
40
0.4000000000000003
210
0
220
-0
230
1
0
CIRCLE
5
104
100
AcDbEntity
8
0
100
AcDbCircle
10
-27.254499996590468
20
-7.299999999999959
30
0
40
0.4000000000000003
210
0
220
-0
230
1
0
CIRCLE
5
105
100
AcDbEntity
8
0
100
AcDbCircle
10
-29.794499996590464
20
-7.299999999999959
30
0
40
0.4000000000000003
210
0
220
-0
230
1
0
CIRCLE
5
106
100
AcDbEntity
8
0
100
AcDbCircle
10
-32.334499996590466
20
-7.299999999999959
30
0
40
0.4000000000000003
210
0
220
-0
230
1
0
CIRCLE
5
107
100
AcDbEntity
8
0
100
AcDbCircle
10
-34.874499996590473
20
-7.299999999999959
30
0
40
0.4000000000000003
210
0
220
-0
230
1
0
CIRCLE
5
108
100
AcDbEntity
8
0
100
AcDbCircle
10
-37.414499996590472
20
-7.299999999999959
30
0
40
0.4000000000000003
210
0
220
-0
230
1
0
CIRCLE
5
109
100
AcDbEntity
8
0
100
AcDbCircle
10
-39.934499996590475
20
-7.3399999999999563
30
0
40
0.4000000000000003
210
0
220
-0
230
1
0
CIRCLE
5
110
100
AcDbEntity
8
0
100
AcDbCircle
10
-24.684499996590464
20
-9.8799999999999564
30
0
40
0.4000000000000003
210
0
220
-0
230
1
0
CIRCLE
5
111
100
AcDbEntity
8
0
100
AcDbCircle
10
-39.934499996590475
20
-9.8799999999999564
30
0
40
0.4000000000000003
210
0
220
-0
230
1
0
CIRCLE
5
112
100
AcDbEntity
8
0
100
AcDbCircle
10
-24.684499996590464
20
-12.419999999999957
30
0
40
0.4000000000000003
210
0
220
-0
230
1
0
CIRCLE
5
113
100
AcDbEntity
8
0
100
AcDbCircle
10
-24.684499996590464
20
-14.959999999999958
30
0
40
0.4000000000000003
210
0
220
-0
230
1
0
CIRCLE
5
114
100
AcDbEntity
8
0
100
AcDbCircle
10
-39.934499996590475
20
-12.419999999999957
30
0
40
0.4000000000000003
210
0
220
-0
230
1
0
CIRCLE
5
115
100
AcDbEntity
8
0
100
AcDbCircle
10
-39.934499996590475
20
-14.959999999999958
30
0
40
0.4000000000000003
210
0
220
-0
230
1
0
CIRCLE
5
116
100
AcDbEntity
8
0
100
AcDbCircle
10
-24.684499996590464
20
-17.499999999999957
30
0
40
0.4000000000000003
210
0
220
-0
230
1
0
CIRCLE
5
117
100
AcDbEntity
8
0
100
AcDbCircle
10
-39.934499996590475
20
-17.499999999999957
30
0
40
0.4000000000000003
210
0
220
-0
230
1
0
CIRCLE
5
118
100
AcDbEntity
8
0
100
AcDbCircle
10
-24.684499996590464
20
-20.03999999999996
30
0
40
0.4000000000000003
210
0
220
-0
230
1
0
CIRCLE
5
119
100
AcDbEntity
8
0
100
AcDbCircle
10
-24.684499996590464
20
-22.579999999999963
30
0
40
0.4000000000000003
210
0
220
-0
230
1
0
CIRCLE
5
120
100
AcDbEntity
8
0
100
AcDbCircle
10
-39.934499996590475
20
-20.03999999999996
30
0
40
0.4000000000000003
210
0
220
-0
230
1
0
CIRCLE
5
121
100
AcDbEntity
8
0
100
AcDbCircle
10
-39.934499996590475
20
-22.579999999999963
30
0
40
0.4000000000000003
210
0
220
-0
230
1
0
CIRCLE
5
122
100
AcDbEntity
8
0
100
AcDbCircle
10
-24.684499996590464
20
-25.119999999999962
30
0
40
0.4000000000000003
210
0
220
-0
230
1
0
CIRCLE
5
123
100
AcDbEntity
8
0
100
AcDbCircle
10
-24.684499996590464
20
-27.659999999999965
30
0
40
0.4000000000000003
210
0
220
-0
230
1
0
CIRCLE
5
124
100
AcDbEntity
8
0
100
AcDbCircle
10
-39.934499996590475
20
-25.119999999999962
30
0
40
0.4000000000000003
210
0
220
-0
230
1
0
CIRCLE
5
125
100
AcDbEntity
8
0
100
AcDbCircle
10
-39.934499996590475
20
-27.659999999999965
30
0
40
0.4000000000000003
210
0
220
-0
230
1
0
LINE
5
126
100
AcDbEntity
8
0
100
AcDbLine
10
48.372900003409569
20
-27.049999999999965
30
0
11
48.372900003409569
21
18.50000000000005
31
0
0
LINE
5
127
100
AcDbEntity
8
0
100
AcDbLine
10
-45.627099996590474
20
-29.049999999999958
30
0
11
46.372900003409555
21
-29.049999999999958
31
0
0
LINE
5
128
100
AcDbEntity
8
0
100
AcDbLine
10
-47.877099996590474
20
18.500000000000053
30
0
11
-47.877099996590474
21
-27.049999999999965
31
0
0
LINE
5
129
100
AcDbEntity
8
0
100
AcDbLine
10
47.373481003409566
20
47.20000000000006
30
0
11
-46.877099996590481
21
47.20000000000006
31
0
0
LWPOLYLINE
5
130
100
AcDbEntity
8
0
100
AcDbPolyline
90
8
70
1
43
0.0
10
22.800000000000004
20
23.849999999999998
42
0.41421356237309509
10
20.800000000000001
20
21.849999999999994
10
20.800000000000001
20
20.099999999999998
42
0.41421356237309509
10
22.800000000000004
20
18.099999999999998
10
36.800000000000004
20
18.099999999999994
42
0.41421356237309509
10
38.800000000000004
20
20.099999999999998
10
38.800000000000004
20
21.849999999999994
42
0.41421356237309509
10
36.799999999999997
20
23.849999999999998
0
LWPOLYLINE
5
131
100
AcDbEntity
8
0
100
AcDbPolyline
90
8
70
1
43
0.0
10
-20.800000000000001
20
21.849999999999994
42
0.41421356237309509
10
-22.800000000000004
20
23.849999999999998
10
-36.800000000000004
20
23.849999999999998
42
0.41421356237309509
10
-38.800000000000004
20
21.849999999999994
10
-38.800000000000004
20
20.099999999999998
42
0.41421356237309509
10
-36.800000000000004
20
18.099999999999998
10
-22.800000000000004
20
18.099999999999994
42
0.41421356237309509
10
-20.800000000000001
20
20.099999999999998
0
LWPOLYLINE
5
132
100
AcDbEntity
8
0
100
AcDbPolyline
90
8
70
1
43
0.0
10
45.284803793329864
20
-24.978459006304483
42
0.41421356237309509
10
47.284803793329864
20
-22.978459006304483
10
47.284803793329857
20
-11.978459006304485
42
0.41421356237309509
10
45.284803793329857
20
-9.9784590063044849
10
44.28480379332985
20
-9.9784590063044831
42
0.41421356237309509
10
42.284803793329857
20
-11.978459006304483
10
42.284803793329857
20
-22.978459006304483
42
0.41421356237309509
10
44.284803793329857
20
-24.978459006304483
0
LWPOLYLINE
5
133
100
AcDbEntity
8
0
100
AcDbPolyline
90
8
70
1
43
0.0
10
-47.284803793329857
20
-22.978459006304483
42
0.41421356237309509
10
-45.284803793329857
20
-24.978459006304483
10
-44.28480379332985
20
-24.978459006304483
42
0.41421356237309509
10
-42.284803793329857
20
-22.978459006304483
10
-42.284803793329857
20
-11.978459006304485
42
0.41421356237309509
10
-44.284803793329857
20
-9.9784590063044849
10
-45.284803793329864
20
-9.9784590063044831
42
0.41421356237309509
10
-47.284803793329857
20
-11.978459006304483
0
LINE
5
134
100
AcDbEntity
8
0
100
AcDbLine
10
-49.200000000000003
20
39.249999999999986
30
0
11
49.200000000000003
21
39.249999999999986
31
0
0
ENDSEC
0
SECTION
2
OBJECTS
0
DICTIONARY
5
C
100
AcDbDictionary
3
ACAD_GROUP
350
D
3
ACAD_MLINESTYLE
350
17
0
DICTIONARY
5
D
100
AcDbDictionary
0
DICTIONARY
5
1A
330
C
100
AcDbDictionary
0
DICTIONARY
5
17
100
AcDbDictionary
0
ENDSEC
0
EOF
