<?xml version="1.0" encoding="UTF-8" standalone="no"?><!DOCTYPE svg PUBLIC "-//W3C//DTD SVG 1.1//EN" "http://www.w3.org/Graphics/SVG/1.1/DTD/svg11.dtd"><svg width="100%" height="100%" viewBox="0 0 263 263" version="1.1" xmlns="http://www.w3.org/2000/svg" xmlns:xlink="http://www.w3.org/1999/xlink" xml:space="preserve" xmlns:serif="http://www.serif.com/" style="fill-rule:evenodd;clip-rule:evenodd;stroke-linejoin:round;stroke-miterlimit:2;"><g><path d="M19.931,179.38c0.912,-5.133 0.969,-5.931 6.725,-5.931c7.237,-0 8.434,1.368 10.087,3.878c0.456,0.684 0.855,1.026 1.766,1.026c1.995,0 2.28,-1.996 2.28,-6.099c-0,-2.504 -0.969,-2.731 -3.135,-2.731l-26.728,-0c-1.31,-0 -3.02,0.227 -3.02,1.934c-0,1.593 2.564,1.878 2.564,3.417c0,1.141 -0.455,2.852 -1.31,7.642l-3.249,19.433c-0.513,3.135 -1.082,4.446 -2.393,5.358c-1.254,0.855 -2.052,1.368 -2.052,2.223c0,1.653 1.311,1.71 4.046,1.71l9.689,-0c1.367,-0 3.305,-0.171 3.305,-1.995c0,-0.741 -0.627,-1.14 -1.14,-1.539c-0.798,-0.57 -1.482,-0.969 -1.482,-1.995c0,-1.596 0.513,-3.876 2.052,-13.737l7.295,-0c4.844,-0 5.015,2.166 6.326,2.166c0.854,-0 1.652,-0.513 1.994,-1.197c0.627,-1.254 1.083,-4.042 1.083,-5.408c0,-1.084 -0.513,-1.825 -1.596,-1.825c-1.766,-0 -2.222,2.053 -7.465,2.053l-7.067,-0l1.425,-8.383Z" style="fill-rule:nonzero;"/><path d="M41.992,201.899c-0.57,3.591 -0.912,4.617 -2.963,5.87c-0.741,0.455 -1.254,0.853 -1.254,1.877c0,1.537 1.596,1.594 4.103,1.594l25.531,-0c2.622,-0 3.591,-0 4.616,-1.594c0.741,-1.195 2.736,-5.524 2.736,-6.778c0,-0.969 -1.026,-1.539 -1.938,-1.539c-1.197,-0 -2.393,1.197 -3.191,1.938c-3.021,2.793 -4.046,3.762 -10.714,3.762c-5.528,-0 -6.44,-0.684 -6.44,-2.052c0,-0.912 0.228,-1.539 0.912,-5.928l3.191,-20.292c0.228,-1.311 0.513,-3.591 1.482,-4.56c0.969,-0.969 3.134,-1.596 3.134,-3.021c0,-1.425 -1.31,-1.653 -2.45,-1.653l-11.626,-0c-1.367,-0 -3.191,0.342 -3.191,2.052c-0,1.482 2.507,1.71 2.507,3.078c0,1.026 -0.342,2.394 -0.854,5.529l-3.591,21.717Z" style="fill-rule:nonzero;"/><path d="M95.74,212.095c14.311,-0 25.533,-10.882 25.533,-25.134c-0,-11.631 -8.943,-18.293 -20.117,-18.293c-16.419,-0 -25.818,12.478 -25.818,24.963c0,11.744 9.171,18.464 20.402,18.464Zm0.171,-4.211c-7.469,-0 -9.693,-6.1 -9.693,-12.486c-0,-7.354 3.307,-22.519 14.767,-22.519c7.013,-0 9.465,6.328 9.465,12.257c0,7.925 -3.706,22.748 -14.539,22.748Z" style="fill-rule:nonzero;"/><path d="M145.615,212.095c14.311,-0 25.533,-10.882 25.533,-25.134c-0,-11.631 -8.943,-18.293 -20.117,-18.293c-16.419,-0 -25.818,12.478 -25.818,24.963c0,11.744 9.171,18.464 20.402,18.464Zm0.171,-4.211c-7.469,-0 -9.693,-6.1 -9.693,-12.486c-0,-7.354 3.307,-22.519 14.767,-22.519c7.013,-0 9.465,6.328 9.465,12.257c0,7.925 -3.706,22.748 -14.539,22.748Z" style="fill-rule:nonzero;"/><path d="M177.824,202.006c-0.684,4.275 -1.368,4.617 -3.192,5.928c-0.627,0.456 -1.14,0.855 -1.14,1.71c0,1.539 1.824,1.596 2.964,1.596l11.001,-0c1.197,-0 2.679,-0.513 2.679,-1.938c0,-1.71 -2.565,-2.052 -2.565,-3.42c0,-1.026 0.285,-2.052 1.482,-10.773c19.606,-0 26.84,-9.286 26.84,-16.3c-0,-3.935 -2.848,-6.954 -6.38,-8.205c-3.019,-1.081 -7.122,-1.081 -10.314,-1.081l-16.416,-0c-1.368,-0 -3.135,0.284 -3.135,1.991c0,1.536 2.565,1.764 2.565,3.246c0,1.027 -0.285,2.167 -0.741,5.018l-3.648,22.228Zm13.908,-23.881c0.228,-1.369 0.57,-2.68 0.969,-3.251c0.912,-1.368 2.793,-1.653 4.275,-1.653c4.332,-0 7.809,1.767 7.809,6.443c0,4.106 -4.389,11.063 -15.162,11.405l2.109,-12.944Z" style="fill-rule:nonzero;"/><path d="M219.776,169.523c-1.938,-0 -2.622,0.855 -2.622,1.88c0,1.881 2.223,1.197 3.306,4.161c2.45,6.611 5.87,13.164 9.973,19.091c-1.425,9.176 -1.767,10.544 -2.394,11.57c-0.798,1.253 -4.331,1.253 -4.331,3.305c0,0.969 0.855,1.71 2.907,1.71l13.62,-0c1.197,-0 2.508,-0.399 2.508,-1.881c-0,-2.223 -3.534,-1.083 -3.534,-3.761c0,-1.767 0.342,-3.477 1.71,-11.569c9.636,-9.575 13.909,-16.129 15.902,-18.693c1.482,-1.881 3.988,-2.394 3.988,-4.218c-0,-1.538 -1.595,-1.595 -2.734,-1.595l-6.21,-0c-1.424,-0 -3.247,0.057 -3.247,1.88c0,1.539 2.279,1.311 2.279,3.078c-0,2.621 -9.689,13.222 -12.026,15.615c-1.824,-2.906 -7.068,-11.968 -7.068,-14.931c0,-2.223 3.192,-1.995 3.192,-3.99c0,-1.082 -0.513,-1.652 -2.565,-1.652l-12.654,-0Z" style="fill-rule:nonzero;"/><path d="M27.758,215.631c5.004,0 8.374,0.6 10.112,1.8c1.737,1.2 2.606,3.6 2.606,7.2l0,3.99c-0.055,0.14 -0.083,0.24 -0.083,0.3c-0,0.46 -0.139,1.25 -0.417,2.37c-0.278,1.12 -1.244,2.125 -2.898,3.015c-1.654,0.89 -3.719,1.335 -6.193,1.335l-27.647,0l0,-20.01l24.52,0Zm4.17,10.14l-0,-0.182c-0,-1.983 -0.306,-3.318 -0.918,-4.006c-0.611,-0.688 -2.251,-1.032 -4.92,-1.032l-14.387,0l0,10.2l14.262,0c2.585,0 4.225,-0.351 4.92,-1.052c0.695,-0.702 1.043,-2.011 1.043,-3.928Z" style="fill-rule:nonzero;"/><path d="M93.06,215.631c3.364,0 5.741,0.471 7.131,1.413c0.722,0.462 1.265,1.093 1.626,1.895c0.361,0.802 0.542,1.814 0.542,3.038l0,0.33c0,0.842 -0.069,1.544 -0.208,2.105c-0.139,0.562 -0.417,1.073 -0.834,1.534c-0.417,0.461 -0.904,0.822 -1.46,1.083c-0.389,0.16 -1.557,0.481 -3.503,0.962c1.891,0.179 3.308,0.533 4.254,1.061c0.945,0.528 1.417,1.449 1.417,2.764l0,3.825l-8.59,0l0,-1.909c0,-0.954 -0.118,-1.725 -0.354,-2.311c-0.237,-0.587 -1.342,-0.88 -3.315,-0.88l-14.137,0l0,5.1l-8.465,0l0,-20.01l25.896,0Zm-3.545,10.05c1.919,0 3.114,-0.172 3.587,-0.516c0.472,-0.344 0.709,-1.113 0.709,-2.307c-0,-0.688 -0.091,-1.178 -0.272,-1.472c-0.18,-0.293 -0.562,-0.521 -1.146,-0.683l-1.376,-0.212l-15.388,0l0,5.19l13.886,0Z" style="fill-rule:nonzero;"/><rect x="129.339" y="215.631" width="8.465" height="20.01" style="fill-rule:nonzero;"/><path d="M177.211,235.641l-14.679,-20.01l9.258,0l10.925,15.09l11.384,-15.09l9.424,0l-15.512,20.01l-10.8,0Z" style="fill-rule:nonzero;"/><path d="M259.318,215.631l-0,4.56l-22.56,0l0,3.42l21.059,0l-0,3.96l-21.059,0l0,3.54l22.56,0l-0,4.53l-31.025,0l0,-20.01l31.025,0Z" style="fill-rule:nonzero;"/></g><path d="M96.469,56.29c29.793,-14.088 47.374,-3.814 58.991,16.589c8.473,20.592 -2.959,42.359 -20.699,48.964c-8.313,3.095 -21.722,7.962 -32.579,11.955c-13.712,5.044 -49.698,18.31 -49.698,18.31c-10.179,-28.735 -22.586,-62.212 -30.976,-85.768c-4.891,-26.552 10.991,-44.61 35.175,-46.119c29.979,-1.871 39.786,36.069 39.786,36.069Zm-5.248,12.631c-5.93,-14.883 -12.82,-43.688 -37.287,-34.316c-24.181,12.268 -13.013,30.917 -5.735,49.46l15.521,43.71l64.757,-24.092c26.567,-12.318 12.319,-48.328 -15.918,-42.85c-5.475,1.781 -14.184,5.506 -21.338,8.088Z" style="fill:#f865b2;"/><path d="M126.385,49.417c5.036,-14.595 9.751,-29.446 9.751,-29.446c28.241,11.481 63.909,22.824 87.09,32.201c23.095,13.982 24.026,38.186 9.088,57.265c-18.517,23.651 -52.551,6.617 -52.551,6.617c-9.261,31.628 -27.948,39.456 -50.916,34.585c-21.02,-7.346 -28.921,-30.351 -22.072,-47.999c3.208,-8.27 7.705,-21.525 11.932,-32.293c1.007,-2.565 2.304,-5.149 3.665,-8.962c3.459,0.535 6.57,1.743 9.255,3.438l-15.617,41.717c-8.442,28.041 27.275,42.091 41.938,17.346c2.307,-5.275 9.005,-25.182 11.828,-32.246c15.063,5.455 48.902,23.138 58.15,-1.376c6.894,-26.224 -14.296,-30.769 -32.991,-37.648l-52.729,-18.948l-6.306,18.441c-2.936,-1.344 -6.099,-2.261 -9.515,-2.692Z" style="fill:#47add8;"/></svg>